<svg width="38" height="38" viewBox="0 0 38 38" fill="none" xmlns="http://www.w3.org/2000/svg">
<path d="M31.0124 15.126C31.0124 24.3004 19.7851 34.4942 19.7851 34.4942C19.7851 34.4942 8.55774 24.3004 8.55774 15.126C8.55774 12.152 9.74061 9.29992 11.8461 7.19704C13.9517 5.09417 16.8074 3.91278 19.7851 3.91278C22.7627 3.91278 25.6184 5.09417 27.724 7.19704C29.8295 9.29992 31.0124 12.152 31.0124 15.126V15.126Z" stroke="#CE1567" stroke-linecap="round" stroke-linejoin="round"/>
<path d="M19.7851 20.2228C22.6036 20.2228 24.8884 17.9409 24.8884 15.126C24.8884 12.311 22.6036 10.0291 19.7851 10.0291C16.9666 10.0291 14.6818 12.311 14.6818 15.126C14.6818 17.9409 16.9666 20.2228 19.7851 20.2228Z" stroke="#CE1567" stroke-linecap="round" stroke-linejoin="round"/>
</svg>
