<svg width="55" height="60" viewBox="0 0 55 60" fill="none" xmlns="http://www.w3.org/2000/svg">
<g clip-path="url(#clip0_1_133)">
<path d="M54.496 33.8105L46.6373 25.9135C46.2228 25.4961 45.5771 25.5248 45.1952 25.9778C45.1822 25.9931 45.1697 26.009 45.1574 26.025L41.0239 31.602V19.7008C41.0248 19.5796 41.0076 19.459 40.9729 19.3439L37.4722 7.97804V3.76187C37.4722 3.1459 37.0152 2.64648 36.4516 2.64648H5.35344C4.78981 2.64648 4.33283 3.1459 4.33283 3.76187V7.97804L0.842324 19.3439C0.807623 19.459 0.7904 19.5796 0.791293 19.7008V56.319C0.791293 56.935 1.24827 57.4344 1.81191 57.4344H18.1417C18.6376 57.4443 19.0682 57.0631 19.1624 56.5309L20.8974 46.6486L22.6325 56.5309C22.7266 57.0631 23.1572 57.4443 23.6531 57.4344H39.9829C40.3151 57.4277 40.6236 57.2445 40.8096 56.9436L54.6389 35.2716C54.9331 34.8143 54.872 34.1895 54.496 33.8105ZM12.1814 4.87726H12.9162V7.05227H12.1814V4.87726ZM6.37406 4.87726H10.1401V7.05227H6.37406V4.87726ZM2.83252 19.8792L6.08828 9.28305H8.599C8.29281 11.9042 7.09869 18.2062 2.83252 20.08V19.8792ZM17.3253 55.2036H2.83252V22.4223C8.95621 20.4592 10.3545 12.2611 10.6606 9.28305H19.8462L19.887 40.6255L17.3253 55.2036ZM19.887 7.04112H14.9676V4.87726H19.887V7.04112ZM31.6649 4.87726H35.431V7.05227H31.6649V4.87726ZM28.8888 4.87726H29.6237V7.05227H28.8888V4.87726ZM21.9282 4.87726H26.8476V7.05227H21.9282V4.87726ZM21.9282 9.28305H24.2348V26.0139C24.3811 27.9866 23.4807 29.8768 21.918 30.877L21.9282 9.28305ZM38.9725 55.2036H24.49L21.9282 40.6255V33.2416C24.7479 32.1508 26.5359 29.1142 26.276 25.8577V9.28305H31.1444C31.4506 12.2611 32.8692 20.4369 38.9725 22.4223V55.2036ZM38.9725 20.08C34.7165 18.195 33.5224 11.9042 33.206 9.28305H35.7167L38.9725 19.8792V20.08ZM41.0137 52.7609V35.0708L44.0756 31.0108L50.6789 37.6139L41.0137 52.7609ZM51.8322 35.7624L45.3411 29.282L46.0454 28.345L52.4548 34.792L51.8322 35.7624Z" fill="#38106A"/>
<path d="M54.496 33.8105L46.6373 25.9135C46.2228 25.4961 45.5771 25.5248 45.1952 25.9778C45.1822 25.9931 45.1697 26.009 45.1574 26.025L41.0239 31.602V19.7008C41.0248 19.5796 41.0076 19.459 40.9729 19.3439L37.4722 7.97804V3.76187C37.4722 3.1459 37.0152 2.64648 36.4516 2.64648H5.35344C4.78981 2.64648 4.33283 3.1459 4.33283 3.76187V7.97804L0.842324 19.3439C0.807623 19.459 0.7904 19.5796 0.791293 19.7008V56.319C0.791293 56.935 1.24827 57.4344 1.81191 57.4344H18.1417C18.6376 57.4443 19.0682 57.0631 19.1624 56.5309L20.8974 46.6486L22.6325 56.5309C22.7266 57.0631 23.1572 57.4443 23.6531 57.4344H39.9829C40.3151 57.4277 40.6236 57.2445 40.8096 56.9436L54.6389 35.2716C54.9331 34.8143 54.872 34.1895 54.496 33.8105ZM12.1814 4.87726H12.9162V7.05227H12.1814V4.87726ZM6.37406 4.87726H10.1401V7.05227H6.37406V4.87726ZM2.83252 19.8792L6.08828 9.28305H8.599C8.29281 11.9042 7.09869 18.2062 2.83252 20.08V19.8792ZM17.3253 55.2036H2.83252V22.4223C8.95621 20.4592 10.3545 12.2611 10.6606 9.28305H19.8462L19.887 40.6255L17.3253 55.2036ZM19.887 7.04112H14.9676V4.87726H19.887V7.04112ZM31.6649 4.87726H35.431V7.05227H31.6649V4.87726ZM28.8888 4.87726H29.6237V7.05227H28.8888V4.87726ZM21.9282 4.87726H26.8476V7.05227H21.9282V4.87726ZM21.9282 9.28305H24.2348V26.0139C24.3811 27.9866 23.4807 29.8768 21.918 30.877L21.9282 9.28305ZM38.9725 55.2036H24.49L21.9282 40.6255V33.2416C24.7479 32.1508 26.5359 29.1142 26.276 25.8577V9.28305H31.1444C31.4506 12.2611 32.8692 20.4369 38.9725 22.4223V55.2036ZM38.9725 20.08C34.7165 18.195 33.5224 11.9042 33.206 9.28305H35.7167L38.9725 19.8792V20.08ZM41.0137 52.7609V35.0708L44.0756 31.0108L50.6789 37.6139L41.0137 52.7609ZM51.8322 35.7624L45.3411 29.282L46.0454 28.345L52.4548 34.792L51.8322 35.7624Z" fill="#6D5FBF"/>
</g>
<defs>
<clipPath id="clip0_1_133">
<rect width="54.0334" height="59.0509" fill="white" transform="translate(0.79126 0.515259)"/>
</clipPath>
</defs>
</svg>
