<svg width="75" height="75" viewBox="0 0 75 75" fill="none" xmlns="http://www.w3.org/2000/svg">
<circle cx="37.7174" cy="37.471" r="37.2319" fill="#FFEFEF"/>
<g clip-path="url(#clip0_491_61)">
<path d="M21.7609 45.4492C21.2713 45.4492 20.8744 45.8461 20.8744 46.3356V49.8815C20.8744 50.3711 21.2713 50.768 21.7609 50.768C22.2504 50.768 22.6473 50.3711 22.6473 49.8815V46.3356C22.6473 45.8461 22.2504 45.4492 21.7609 45.4492Z" fill="#ED5050"/>
<path d="M25.3068 47.2222C24.8172 47.2222 24.4203 47.6191 24.4203 48.1086V51.6545C24.4203 52.1441 24.8172 52.541 25.3068 52.541C25.7963 52.541 26.1932 52.1441 26.1932 51.6545V48.1086C26.1932 47.6191 25.7963 47.2222 25.3068 47.2222Z" fill="#ED5050"/>
<path d="M43.0912 18.4117C42.8286 17.9985 42.2806 17.8765 41.8675 18.1392C41.4788 18.3863 41.3441 18.89 41.5576 19.2981C42.7767 21.4158 42.0483 24.1208 39.9305 25.3399C37.8128 26.559 35.1077 25.8306 33.8887 23.7128C32.6696 21.5951 33.398 18.8901 35.5158 17.671C36.634 17.0273 37.9775 16.9038 39.1943 17.3328C39.6625 17.4756 40.158 17.2117 40.3007 16.7434C40.4344 16.3046 40.2114 15.8362 39.7864 15.6636C36.5554 14.5209 33.0099 16.2138 31.8672 19.4447C30.7246 22.6757 32.4174 26.2213 35.6484 27.364C38.8793 28.5066 42.4249 26.8138 43.5676 23.5828C43.8026 22.9185 43.9227 22.219 43.9227 21.5143C43.9229 20.425 43.6362 19.3549 43.0912 18.4117Z" fill="#ED5050"/>
<path d="M58.0965 28.5292C58.0948 28.5035 58.0903 28.4778 58.0859 28.4512C58.0696 28.3494 58.0357 28.2514 57.9857 28.1613V28.1551C57.9857 28.1489 57.9751 28.1453 57.9715 28.1391C57.9193 28.0579 57.854 27.9857 57.7783 27.9255C57.7601 27.9094 57.7413 27.8944 57.7216 27.8803C57.7047 27.8688 57.6914 27.8537 57.6737 27.843L48.3241 22.3194C48.3436 22.0535 48.3551 21.7875 48.3551 21.5145C48.3551 15.6395 43.5924 10.8768 37.7174 10.8768C31.8424 10.8768 27.0797 15.6395 27.0797 21.5145C27.0797 21.7805 27.0913 22.0535 27.1108 22.3194L17.7638 27.843C17.494 28.0026 17.3284 28.2928 17.3285 28.6063V51.6546C17.3284 51.9681 17.494 52.2583 17.7638 52.4179L37.2662 63.942C37.2896 63.9533 37.3135 63.9634 37.338 63.9722C37.3622 63.9842 37.3871 63.9949 37.4125 64.0041C37.6076 64.0856 37.8272 64.0856 38.0224 64.0041C38.0481 63.9949 38.0732 63.9842 38.0977 63.9722C38.1208 63.9615 38.1456 63.9553 38.1686 63.942L57.671 52.4179C57.9409 52.2583 58.1064 51.9681 58.1063 51.6546V28.6063C58.1063 28.5797 58.0983 28.5549 58.0965 28.5292ZM55.477 28.6063L50.8674 31.3304L46.1389 28.5372C46.9919 27.2002 47.6265 25.7361 48.0191 24.1996L55.477 28.6063ZM45.3969 36.6209L49.9764 33.9145V39.8335L45.3969 42.5399V36.6209ZM44.5149 35.0846L41.8945 33.536C43.0776 32.4577 44.1607 31.2748 45.131 30.0016L49.1245 32.3605L44.5149 35.0846ZM37.7174 12.6498C42.6111 12.6552 46.5768 16.6208 46.5821 21.5145C46.5821 27.9264 39.6224 33.2798 37.7174 34.6255C35.8124 33.2798 28.8527 27.9264 28.8527 21.5145C28.8581 16.6208 32.8237 12.6552 37.7174 12.6498ZM56.3334 51.1493L38.6039 61.6257V58.7464C38.6039 58.2568 38.207 57.8599 37.7174 57.8599C37.2279 57.8599 36.8309 58.2568 36.8309 58.7464V61.6257L19.1015 51.1493V29.1116L27.4148 24.1996C29.1213 31.1966 36.8726 36.2114 37.2414 36.4463C37.5318 36.6311 37.903 36.6311 38.1934 36.4463C38.985 35.9264 39.7479 35.3641 40.4788 34.762L42.7703 36.1147L37.7174 39.1013L21.6669 29.616C21.2454 29.3668 20.7017 29.5065 20.4525 29.928C20.2032 30.3495 20.343 30.8933 20.7645 31.1425L36.8309 40.6366V55.2005C36.8309 55.6901 37.2279 56.087 37.7174 56.087C38.207 56.087 38.6039 55.6901 38.6039 55.2005V40.6366L43.6275 37.6678V44.0939C43.6274 44.5834 44.0242 44.9805 44.5138 44.9806C44.6726 44.9806 44.8285 44.938 44.9652 44.8571L51.3177 41.1056C51.5878 40.9459 51.7533 40.6552 51.7529 40.3414V32.8667L56.3334 30.1603V51.1493Z" fill="#ED5050"/>
</g>
<defs>
<clipPath id="clip0_491_61">
<rect width="53.1884" height="53.1884" fill="white" transform="translate(11.1232 10.8768)"/>
</clipPath>
</defs>
</svg>
