<svg width="233" height="234" viewBox="0 0 233 234" fill="none" xmlns="http://www.w3.org/2000/svg">
<path d="M120.002 1.19767C60.6727 -0.612947 9.276 43.7931 1.51478 102.067C-6.9794 165.772 39.7508 223.095 97.2392 232.273C168.752 243.696 238.106 177.629 231.884 105.963C227.193 51.9618 180.308 3.03332 120.002 1.19767Z" fill="#F4F7FA"/>
<path d="M219.554 211.614C219.603 211.614 219.635 211.922 219.635 212.106C219.635 216.253 206.051 219.582 189.307 219.582C174.787 219.582 162.652 217.137 159.679 213.65H159.134C159.134 213.65 159.134 212.924 159.134 211.555V98.2371C159.134 92.4048 175.291 73.4976 186.375 61.2821C186.579 61.0652 186.742 60.8399 186.937 60.623C189.666 57.6192 192.027 55.0576 193.721 53.247L193.762 53.1886C195.423 51.428 196.401 50.4017 196.401 50.4017L197.459 51.0025L198.795 51.7618L200.131 52.5211L201.295 53.1802L201.466 53.2804L202.794 54.0313L204.129 54.7906L205.465 55.5499L206.8 56.3008L208.128 57.0601L209.464 57.8194L210.799 58.5704L212.127 59.3297L213.462 60.089L214.798 60.8399L216.134 61.5992L217.461 62.3585L218.797 63.1094L219.31 63.51C219.31 63.51 214.097 68.8834 209.276 76.4429V76.4513C208.706 78.3787 207.281 80.448 206.401 82.6007C202.069 93.2225 216.142 98.8462 218.21 106.781C218.332 107.257 218.536 108.175 218.617 109.051H218.919V109.184C218.919 112.121 218.968 117.178 219.049 123.527C219.147 130.269 219.179 138.471 219.09 147.157L219.407 187.917L219.562 208.543L219.578 211.639H219.554V211.614Z" fill="url(#paint0_linear_34_402)"/>
<path d="M219.44 187.892C203.852 190.353 188.045 190.887 172.327 189.51C167.88 189.11 163.091 188.568 159.117 187.867V123.41C160.819 123.711 162.806 123.978 164.696 124.228C182.751 126.548 201.075 126.314 219.073 123.502C219.171 130.244 219.22 138.446 219.122 147.132L219.44 187.892Z" fill="url(#paint1_linear_34_402)"/>
<g opacity="0.9">
<path opacity="0.9" d="M200.823 144.98C192.019 146.123 184.836 150.253 180.398 157.278C179.192 159.189 178.362 161.517 178.288 163.72C178.207 166.106 178.915 168.426 180.088 170.545C181.122 172.422 182.23 174.133 184.054 175.485C184.152 175.56 184.25 175.626 184.356 175.693C184.404 175.727 184.453 175.743 184.502 175.777C184.543 171.388 185.365 163.887 190.374 161.701C188.371 165.005 186.791 171.738 186.929 176.778C191.245 177.788 196.718 175.743 199.919 173.507C202.281 171.863 203.893 169.444 205.025 166.999C207.965 160.633 203.6 153.649 206.548 147.316C206.98 146.381 207.248 145.08 208.201 144.445C205.734 144.554 203.266 144.662 200.823 144.98Z" fill="white"/>
<path opacity="0.9" d="M180.789 147.549C181.163 148.175 181.676 149.168 182.263 150.411C180.544 152.03 179.038 153.866 177.743 155.918C176.212 158.346 175.316 161.083 175.226 163.645C175.194 164.504 175.259 165.355 175.389 166.206C175.357 166.19 175.34 166.181 175.316 166.165C172.954 164.521 171.35 162.101 170.21 159.656C167.278 153.282 171.643 146.306 168.687 139.973C168.255 139.047 167.994 137.737 167.042 137.103C169.493 137.203 171.969 137.311 174.404 137.629C180.837 138.463 186.408 140.899 190.667 144.896C187.906 146.089 185.423 147.641 183.232 149.535C182.442 148.609 181.611 147.908 180.789 147.549Z" fill="white"/>
</g>
<path opacity="0.3" d="M219.554 211.613C219.603 211.613 219.635 211.922 219.635 212.106C219.635 216.253 206.051 219.582 189.307 219.582C174.787 219.582 162.652 217.137 159.679 213.649H159.134C159.134 213.649 159.134 212.923 159.134 211.555V98.237C159.134 92.4047 175.291 73.4975 186.375 61.282C186.579 61.0651 186.742 60.8398 186.937 60.6229C189.226 61.7576 191.588 63.2178 194.088 65.0284C194.088 65.0284 197.044 79.213 184.909 85.1872C174.892 90.1184 162.123 107.065 164.639 124.237C165.168 127.849 166.374 131.479 168.434 135C174.42 145.255 184.706 155.067 184.421 167.341C184.307 172.314 181.953 176.544 179.087 180.683C177.482 183.002 174.216 186.19 172.262 189.519C170.649 192.264 169.925 195.084 171.781 197.562C174.534 201.225 181.864 201.426 186.156 202.335C197.15 204.688 208.991 204.78 219.611 208.526L219.635 211.622H219.554V211.613Z" fill="url(#paint2_linear_34_402)"/>
<path d="M226.02 59.7216L212.737 76.2925C212.127 77.0602 210.938 77.2271 210.091 76.6847L191.221 64.4693L185.675 60.8814C184.828 60.3307 184.632 59.2627 185.251 58.5034L198.526 41.9241C200.244 39.7881 203.567 39.2958 205.953 40.8394L213.259 45.5704L224.807 53.0465C227.193 54.5901 227.73 57.5772 226.02 59.7216Z" fill="url(#paint3_linear_34_402)"/>
<path d="M190.366 59.7634C190.138 60.0387 189.714 60.0971 189.405 59.8969L189.242 59.7968C188.932 59.5965 188.867 59.2043 189.087 58.929L201.727 43.326C201.955 43.0506 202.378 42.9922 202.688 43.1925L202.85 43.2926C203.16 43.4929 203.225 43.885 203.005 44.1604L190.366 59.7634Z" fill="url(#paint4_linear_34_402)"/>
<path d="M192.915 61.4322C192.687 61.7075 192.263 61.7659 191.954 61.5657L191.791 61.4655C191.482 61.2653 191.416 60.8731 191.636 60.5978L204.276 44.9947C204.504 44.7194 204.927 44.661 205.237 44.8612L205.4 44.9614C205.709 45.1616 205.774 45.5538 205.554 45.8291L192.915 61.4322Z" fill="url(#paint5_linear_34_402)"/>
<path d="M195.464 63.1009C195.236 63.3763 194.812 63.4347 194.503 63.2344L194.34 63.1343C194.031 62.934 193.965 62.5419 194.185 62.2665L206.825 46.6635C207.053 46.3881 207.476 46.3297 207.786 46.53L207.949 46.6301C208.258 46.8303 208.323 47.2225 208.103 47.4978L195.464 63.1009Z" fill="url(#paint6_linear_34_402)"/>
<path d="M198.013 64.7698C197.785 65.0452 197.362 65.1036 197.052 64.9033L196.889 64.8032C196.58 64.6029 196.515 64.2108 196.735 63.9354L209.374 48.3324C209.602 48.057 210.026 47.9986 210.335 48.1989L210.498 48.299C210.807 48.4993 210.873 48.8914 210.653 49.1668L198.013 64.7698Z" fill="url(#paint7_linear_34_402)"/>
<path d="M200.554 66.4386C200.326 66.7139 199.902 66.7723 199.593 66.5721L199.43 66.4719C199.121 66.2717 199.056 65.8795 199.275 65.6042L211.915 50.0011C212.143 49.7257 212.566 49.6673 212.876 49.8676L213.039 49.9677C213.348 50.168 213.413 50.5601 213.193 50.8355L200.554 66.4386Z" fill="url(#paint8_linear_34_402)"/>
<path d="M203.103 68.0991C202.875 68.3744 202.451 68.4328 202.142 68.2325L201.979 68.1324C201.67 67.9322 201.604 67.54 201.824 67.2647L214.464 51.6616C214.692 51.3863 215.115 51.3279 215.425 51.5281L215.588 51.6282C215.897 51.8285 215.962 52.2207 215.742 52.496L203.103 68.0991Z" fill="url(#paint9_linear_34_402)"/>
<path d="M205.652 69.7677C205.424 70.043 205.001 70.1014 204.691 69.9012L204.528 69.801C204.219 69.6008 204.154 69.2086 204.374 68.9333L217.013 53.3303C217.241 53.0549 217.665 52.9965 217.974 53.1968L218.137 53.2969C218.446 53.4971 218.512 53.8893 218.292 54.1646L205.652 69.7677Z" fill="url(#paint10_linear_34_402)"/>
<path d="M208.201 71.4365C207.973 71.7119 207.55 71.7703 207.24 71.57L207.077 71.4699C206.768 71.2697 206.703 70.8775 206.923 70.6021L219.562 54.9991C219.79 54.7237 220.214 54.6653 220.523 54.8656L220.686 54.9657C220.996 55.166 221.061 55.5581 220.841 55.8335L208.201 71.4365Z" fill="url(#paint11_linear_34_402)"/>
<path d="M210.75 73.1054C210.522 73.3807 210.099 73.4391 209.789 73.2389L209.626 73.1387C209.317 72.9385 209.252 72.5463 209.471 72.271L222.111 56.668C222.339 56.3926 222.762 56.3342 223.072 56.5345L223.235 56.6346C223.544 56.8348 223.609 57.227 223.389 57.5024L210.75 73.1054Z" fill="url(#paint12_linear_34_402)"/>
<path opacity="0.3" d="M213.259 45.5706C212.884 46.989 212.102 48.3658 210.579 49.2502C209.944 49.6257 209.162 49.9094 208.234 50.0679C208.128 50.093 208.022 50.1013 207.908 50.1347C207.061 50.3015 206.181 50.5769 205.286 50.9691C204.154 51.4447 202.989 52.0705 201.841 52.8131C199.74 54.1648 197.679 55.8836 195.928 57.7109C194.723 58.9542 193.656 60.2474 192.817 61.5241C192.817 61.5241 192.809 61.5241 192.809 61.5324C192.133 62.542 191.596 63.5266 191.229 64.4611L185.683 60.8732C184.836 60.3225 184.641 59.2545 185.26 58.4952L198.534 41.916C200.253 39.7799 203.575 39.2876 205.962 40.8313L213.259 45.5706Z" fill="url(#paint13_linear_34_402)"/>
<path d="M48.3834 72.8966C55.292 72.8966 60.8926 67.1586 60.8926 60.0804C60.8926 53.0022 55.292 47.2642 48.3834 47.2642C41.4748 47.2642 35.8743 53.0022 35.8743 60.0804C35.8743 67.1586 41.4748 72.8966 48.3834 72.8966Z" fill="url(#paint14_linear_34_402)"/>
<path opacity="0.5" d="M48.3835 66.5887C53.0837 66.5887 56.894 62.6849 56.894 57.8694C56.894 53.0538 53.0837 49.15 48.3835 49.15C43.6833 49.15 39.873 53.0538 39.873 57.8694C39.873 62.6849 43.6833 66.5887 48.3835 66.5887Z" fill="white"/>
<path d="M64.1177 48.2488C66.659 48.2488 68.7191 46.1381 68.7191 43.5345C68.7191 40.9308 66.659 38.8202 64.1177 38.8202C61.5765 38.8202 59.5164 40.9308 59.5164 43.5345C59.5164 46.1381 61.5765 48.2488 64.1177 48.2488Z" fill="url(#paint15_linear_34_402)"/>
<path opacity="0.5" d="M64.1176 45.9289C65.8493 45.9289 67.2531 44.4907 67.2531 42.7165C67.2531 40.9424 65.8493 39.5042 64.1176 39.5042C62.386 39.5042 60.9822 40.9424 60.9822 42.7165C60.9822 44.4907 62.386 45.9289 64.1176 45.9289Z" fill="white"/>
<path d="M47.4226 41.9494C52.1363 41.9494 55.9575 38.0344 55.9575 33.205C55.9575 28.3756 52.1363 24.4606 47.4226 24.4606C42.7089 24.4606 38.8877 28.3756 38.8877 33.205C38.8877 38.0344 42.7089 41.9494 47.4226 41.9494Z" fill="url(#paint16_linear_34_402)"/>
<path opacity="0.5" d="M47.4226 37.6521C50.6296 37.6521 53.2293 34.9886 53.2293 31.703C53.2293 28.4173 50.6296 25.7538 47.4226 25.7538C44.2157 25.7538 41.616 28.4173 41.616 31.703C41.616 34.9886 44.2157 37.6521 47.4226 37.6521Z" fill="white"/>
<path d="M25.67 52.2623C31.4811 52.2623 36.192 47.4358 36.192 41.4821C36.192 35.5283 31.4811 30.7018 25.67 30.7018C19.8588 30.7018 15.1479 35.5283 15.1479 41.4821C15.1479 47.4358 19.8588 52.2623 25.67 52.2623Z" fill="url(#paint17_linear_34_402)"/>
<path opacity="0.5" d="M25.67 46.9556C29.6236 46.9556 32.8286 43.6719 32.8286 39.6213C32.8286 35.5707 29.6236 32.287 25.67 32.287C21.7165 32.287 18.5115 35.5707 18.5115 39.6213C18.5115 43.6719 21.7165 46.9556 25.67 46.9556Z" fill="white"/>
<path d="M55.4689 17.7854C58.9232 17.7854 61.7235 14.9164 61.7235 11.3773C61.7235 7.83824 58.9232 4.96924 55.4689 4.96924C52.0146 4.96924 49.2144 7.83824 49.2144 11.3773C49.2144 14.9164 52.0146 17.7854 55.4689 17.7854Z" fill="url(#paint18_linear_34_402)"/>
<path opacity="0.5" d="M55.4688 14.64C57.8211 14.64 59.728 12.6862 59.728 10.2761C59.728 7.86605 57.8211 5.91229 55.4688 5.91229C53.1164 5.91229 51.2095 7.86605 51.2095 10.2761C51.2095 12.6862 53.1164 14.64 55.4688 14.64Z" fill="white"/>
<path d="M77.0423 6.68801C74.9493 10.2926 74.5258 15.8496 74.143 20.9143C73.6951 26.8051 73.0843 34.8152 75.2669 40.0551C77.2784 44.9029 78.7606 44.1019 82.0182 45.0197C88.4194 46.8304 126.68 53.2051 134.791 46.3965C142.772 39.6964 145.558 26.4964 140.337 16.2584C137.112 9.94212 129.473 1.11431 89.6166 1.665C80.8211 1.79016 78.8014 3.66753 77.0423 6.68801Z" fill="url(#paint19_linear_34_402)"/>
<path d="M79.5016 25.4702C79.3795 27.0388 78.5976 28.474 77.3516 29.4001C76.1137 30.3263 74.5338 30.6601 73.0434 30.2929C70.8039 29.7506 68.7923 29.2583 68.7923 29.2583L68.719 14.7233L73.7438 13.747C75.3563 13.43 77.0177 13.9056 78.2312 15.032C79.4528 16.1501 80.088 17.7938 79.9658 19.4626L79.5016 25.4702Z" fill="#26264F"/>
<path d="M117.257 42.1162C117.257 42.1162 112.24 75.5835 98.3142 94.5825C72.058 130.411 78.3045 181.15 78.337 211.538C78.3452 218.856 83.1501 224.78 90.0481 226.082C103.307 228.585 139.042 230.571 170.161 224.238C177.14 222.819 182.645 216.445 183.313 208.994C185.895 180.266 175.047 118.179 151.291 93.1723C143.408 84.8702 140.557 79.0879 141.836 47.8735L117.257 42.1162Z" fill="url(#paint20_linear_34_402)"/>
<path opacity="0.3" d="M164.419 201.384C152.789 168.367 110.97 174.533 103.07 151.121C95.2195 127.858 132.079 109.309 132.82 68.5746C132.975 59.9804 131.525 52.0454 129.253 44.9281L117.257 42.1162C117.257 42.1162 112.24 75.5835 98.3142 94.5825C72.058 130.411 78.3045 181.15 78.337 211.538C78.3452 218.856 83.1501 224.78 90.0481 226.082C103.307 228.585 139.042 230.571 170.16 224.238C173.353 223.587 176.236 221.893 178.492 219.549C175.324 218.798 172.555 217.404 170.323 215.21C166.439 211.397 166.593 207.542 164.419 201.384Z" fill="url(#paint21_linear_34_402)"/>
<path d="M70.3069 94.0231C88.2725 72.062 84.8358 33.2547 84.8358 33.2547L105.668 40.4721C101.14 79.6132 83.7282 94.4236 74.5825 98.195C73.4098 98.679 69.4844 95.0327 70.3069 94.0231Z" fill="url(#paint22_linear_34_402)"/>
<path d="M73.679 96.2594C91.6446 74.2983 93.2408 35.8831 93.2408 35.8831L109.032 42.7084C104.504 81.8495 84.1603 94.5238 75.0146 98.2953C73.85 98.7709 72.8483 97.269 73.679 96.2594Z" fill="url(#paint23_linear_34_402)"/>
<path d="M86.0496 5.94552C83.6715 9.90052 83.2155 15.8914 82.8001 21.365C82.3196 27.7314 81.66 36.3756 84.1602 42.1412C86.4893 47.5147 88.9081 44.903 117.77 51.8368C135.5 56.1005 149.63 60.2474 161.153 52.5293C172.881 44.6778 176.839 28.2487 168.776 15.5159C163.914 7.81455 154.027 0.839078 101.075 1.82365C90.5776 2.01556 88.053 2.61632 86.0496 5.94552Z" fill="url(#paint24_linear_34_402)"/>
<path opacity="0.6" d="M145.102 39.271C125.084 32.8295 122.795 25.9291 110.587 23.5928C97.6954 21.123 93.1185 29.5587 88.7777 26.2128C86.6847 24.6024 84.8686 20.3721 84.494 9.57513C83.4353 13.0712 83.1095 17.36 82.8082 21.365C82.3277 27.7314 81.668 36.3756 84.1682 42.1413C86.4974 47.5147 88.9162 44.9031 117.778 51.8368C135.508 56.1005 149.638 60.2474 161.161 52.5294C164.085 50.5686 166.569 47.9903 168.499 44.9615C159.948 43.4012 152.146 41.5322 145.102 39.271Z" fill="url(#paint25_linear_34_402)"/>
<path d="M65.5021 22.0075C65.4858 17.9941 66.9191 14.7317 68.719 14.7233C70.5106 14.715 71.9847 17.9608 72.0091 21.9742C72.0254 25.9876 70.5921 29.25 68.7923 29.2584C67.0006 29.2667 65.5265 26.0209 65.5021 22.0075Z" fill="url(#paint26_linear_34_402)"/>
<path d="M127.03 122.234C116.272 119.522 105.677 130.519 102.769 140.574C101.987 143.277 101.792 145.814 101.857 147.983C100.692 152.364 100.383 156.035 100.358 156.36C100.318 156.878 100.692 157.328 101.197 157.362C101.222 157.362 101.246 157.362 101.271 157.362C101.743 157.362 102.142 156.995 102.175 156.502C102.191 156.335 103.559 139.94 111.597 135.375C119.66 130.803 131.371 136.31 131.485 136.36C131.485 136.36 111.271 128.033 106.825 145.855C107.647 145.196 108.576 144.629 109.626 144.212C115.604 141.834 120.189 146.348 127.804 145.438C131.094 145.046 135.663 143.553 140.826 138.496C138.855 130.503 133.724 123.919 127.03 122.234Z" fill="white"/>
<path d="M163.499 177.762C170.91 169.327 166.439 154.566 159.15 147.199C157.195 145.221 155.102 143.844 153.205 142.885C149.988 139.764 146.966 137.762 146.698 137.587C146.274 137.311 145.712 137.436 145.435 137.87C145.419 137.895 145.411 137.912 145.395 137.937C145.175 138.363 145.305 138.897 145.704 139.164C145.843 139.255 159.313 148.225 159.443 157.637C159.573 167.074 149.32 175.059 149.214 175.142C149.214 175.142 165.909 160.799 152.667 148.384C152.838 149.443 152.895 150.545 152.757 151.688C151.983 158.204 145.932 160.223 143.131 167.533C141.917 170.695 141.046 175.526 142.96 182.577C150.802 184.546 158.889 183.019 163.499 177.762Z" fill="white"/>
<path d="M99.8371 184.412C104.854 194.533 119.904 195.576 129.237 191.263C131.745 190.103 133.749 188.601 135.312 187.141C139.311 185.188 142.226 183.027 142.479 182.835C142.886 182.527 142.976 181.943 142.674 181.534C142.658 181.517 142.642 181.492 142.626 181.475C142.316 181.108 141.787 181.041 141.396 181.333C141.265 181.434 128.243 191.071 119.627 187.808C110.986 184.537 107.411 171.855 107.37 171.73C107.37 171.73 114.415 192.856 130.491 184.671C129.465 184.454 128.439 184.112 127.453 183.57C121.793 180.482 122.135 173.974 116.491 168.659C114.048 166.356 109.968 163.786 102.858 163.077C98.2408 169.836 96.7179 178.113 99.8371 184.412Z" fill="white"/>
<path d="M52.2433 222.844C52.2433 222.844 52.0316 224.58 52.17 225.164C52.3166 225.748 57.2437 226.165 58.9132 225.965C60.5828 225.765 57.9197 224.012 56.8528 223.679C55.7941 223.353 52.2433 222.844 52.2433 222.844Z" fill="url(#paint27_linear_34_402)"/>
<path d="M54.7271 219.949L54.2059 223.437C54.2059 223.437 52.8785 224.046 52.2432 223.445L52.1699 219.799L54.7271 219.949Z" fill="url(#paint28_linear_34_402)"/>
<path d="M26.9321 219.791C26.9321 219.791 27.9745 220.583 27.6976 221.535C27.4207 222.486 24.9775 226.307 23.2347 227.384C21.4919 228.468 22.0375 226.207 22.5506 224.805C23.0555 223.404 24.3504 220.3 24.8554 219.782C25.3603 219.273 26.9321 219.791 26.9321 219.791Z" fill="url(#paint29_linear_34_402)"/>
<path d="M28.8132 215.961C28.3083 217.404 27.8196 218.589 27.4369 219.465C26.5981 221.401 26.1338 222.127 25.6126 222.761C25.1566 223.312 24.0816 224.48 23.7965 224.288C23.5033 224.088 24.2933 222.669 25.8081 218.497C26.028 217.888 26.7202 215.961 26.7202 215.961H28.8132Z" fill="url(#paint30_linear_34_402)"/>
<path d="M65.0542 155.618C65.4125 159.248 65.7627 164.88 65.2415 171.722C64.5655 180.633 62.8309 186.265 60.6483 195.769C59.3127 201.576 57.521 210.12 55.8922 220.8C55.5176 221.017 54.41 221.601 52.9767 221.384C52.1785 221.259 51.5759 220.934 51.2257 220.7C46.9583 207.35 48.2206 199.081 50.281 193.925C51.1605 191.73 52.2193 189.995 52.7893 186.615C53.5386 182.151 52.6102 179.648 51.2827 169.302C50.338 161.926 50.5009 160.783 51.128 159.681C53.6526 155.267 61.3405 155.351 65.0542 155.618Z" fill="url(#paint31_linear_34_402)"/>
<path d="M50.3786 157.17C47.7644 170.987 45.2071 178.246 43.2607 182.352C42.7802 183.361 41.184 186.632 39.6774 191.313C38.3418 195.46 37.788 198.505 37.5029 199.849C36.599 204.087 34.3756 210.27 28.3898 218.38C28.3165 218.422 27.2904 219.015 26.3213 218.489C25.8245 218.222 25.5801 217.796 25.4824 217.596C26.2642 209.836 27.1601 203.32 27.9419 198.297C28.1048 197.245 28.8296 192.623 29.9535 186.532C30.3932 184.145 31.0448 180.649 31.8184 177.053C32.7876 172.581 34.2698 166.498 36.5501 159.206C41.1596 158.53 45.7691 157.846 50.3786 157.17Z" fill="url(#paint32_linear_34_402)"/>
<path d="M89.8118 117.653C89.8118 117.653 90.3981 115.292 91.3754 114.666C92.3527 114.04 93.7372 113.373 94.0548 113.106C94.3724 112.83 94.7389 113.648 93.8268 114.274C92.9146 114.9 92.9146 114.9 92.9146 114.9C92.8983 115.075 92.9228 115.208 92.9553 115.3C93.1019 115.742 93.5906 116.051 94.2014 116.101C96.5387 116.602 97.459 116.627 97.8173 116.518C97.8743 116.502 98.0779 116.435 98.1594 116.527C98.2978 116.677 98.0535 117.144 97.9476 117.311C97.3124 118.304 95.1135 118.73 93.4684 117.962C92.8658 117.678 92.6377 117.378 92.198 117.453C91.4976 117.578 91.0741 118.513 90.8216 119.297L89.8118 117.653Z" fill="url(#paint33_linear_34_402)"/>
<path d="M91.701 118.404C91.0332 117.795 90.3654 117.186 89.6976 116.585C89.4533 116.836 85.8944 120.398 80.9184 119.314C77.4898 118.571 75.519 115.693 74.2485 113.849C70.4453 108.325 72.7174 104.27 68.6291 100.515C67.489 99.4721 65.2657 98.2122 63.8079 98.596C60.3386 99.5138 58.3351 110.211 61.6986 118.63C62.3746 120.332 66.1126 129.685 74.5824 130.695C81.4396 131.513 88.6878 126.573 91.701 118.404Z" fill="white"/>
<path d="M51.5595 102.184C53.0172 100.807 55.7943 99.2217 57.1951 95.5254C57.6186 94.4156 59.1008 90.4773 56.91 87.4652C55.607 85.6796 53.1882 84.4614 51.0545 84.8953C49.2303 85.2624 48.9452 86.5641 45.8505 89.184C44.6452 90.202 42.7069 91.8374 40.5488 92.7552C36.8514 94.3155 34.6363 92.847 30.9226 93.0139C26.362 93.2225 21.0684 95.8257 18.5193 99.6139C13.9912 106.339 20.5472 113.164 15.5875 121.041C13.9587 123.619 13.1606 123.043 9.3166 128.041C5.46449 133.048 3.53437 135.543 3.87642 138.613C4.34877 142.868 8.82796 146.932 13.0384 147.207C17.1511 147.474 19.7653 144.162 21.8665 145.614C23.3568 146.648 22.5017 148.651 24.0898 151.071C26.1339 154.183 30.1408 154.8 30.7923 154.9C36.8026 155.826 44.914 148.601 48.3589 140.048C54.5646 124.604 43.6598 109.677 51.5595 102.184Z" fill="url(#paint34_linear_34_402)"/>
<path opacity="0.15" d="M64.5981 108.842C70.8608 113.907 70.1604 123.627 74.0125 124.12C75.1852 124.27 75.1201 123.344 77.9298 122.409C82.0343 121.041 83.9563 122.426 86.8474 121.383C88.0446 120.949 89.6001 120.031 91.1312 117.87C91.3266 118.045 91.5139 118.221 91.7094 118.396C88.6961 126.564 81.4398 131.504 74.5989 130.686C66.1291 129.677 62.391 120.323 61.7151 118.621C60.1352 114.674 59.7442 110.219 60.127 106.514C61.5604 106.956 63.1321 107.657 64.5981 108.842Z" fill="url(#paint35_linear_34_402)"/>
<path d="M69.134 101.157C68.7512 100.548 67.5296 98.8545 62.3501 97.6029C59.7521 96.9771 54.9553 95.9091 48.7822 97.2441C40.3043 99.0881 35.0189 104.295 33.0317 106.489C34.6605 107.574 39.1479 110.886 41.3793 117.178C42.0715 119.13 44.1157 125.822 41.192 132.08C39.5062 135.684 36.5255 138.396 34.2615 140.457C30.8654 143.544 29.1063 144.02 27.9662 146.782C26.7283 149.794 27.9743 151.262 26.4351 153.323C24.7819 155.534 22.8436 154.508 20.0421 156.744C17.1754 159.039 18.1934 160.924 15.5792 163.461C11.7841 167.141 6.75108 165.947 6.51491 167.6C6.31131 169.026 9.88652 170.962 12.9324 171.738C18.9508 173.29 24.1955 170.687 25.7591 169.877C30.0836 167.65 29.3344 166.214 32.6327 164.521C38.1461 161.684 41.9168 164.838 54.483 165.163C61.2914 165.338 64.7281 165.38 66.6094 163.019C68.3278 160.866 67.4238 158.505 66.3895 148.317C66.0556 144.913 65.3633 137.795 65.3552 133.732C65.3552 131.337 66.1615 127.416 67.7902 119.581C67.888 119.122 68.7675 114.883 69.4761 109.226C70.1276 104.153 70.038 102.593 69.134 101.157Z" fill="white"/>
<g opacity="0.15">
<path opacity="0.15" d="M15.5876 163.469C18.2018 160.933 17.1756 159.047 20.0505 156.753C22.852 154.516 24.7903 155.543 26.4435 153.332C27.9827 151.271 26.7367 149.802 27.9746 146.79C29.1147 144.028 30.8738 143.553 34.2699 140.465C36.5339 138.404 39.5146 135.701 41.2004 132.088C44.1241 125.822 42.08 119.138 41.3877 117.186C39.1644 110.903 34.6689 107.59 33.0401 106.497C33.1949 106.322 33.3822 106.13 33.5776 105.922C44.3033 107.432 50.5578 113.782 51.3315 115.659C53.1232 120.006 50.2891 121.6 50.2158 134.132C50.1832 140.123 50.8103 142.485 48.9128 144.988C46.7465 147.85 44.2463 146.965 41.1027 150.703C38.6921 153.574 39.0748 155.401 36.8271 156.611C34.4083 157.912 32.861 156.394 30.1327 156.995C25.5721 157.987 24.5948 163.378 21.5815 166.323C19.3012 168.551 15.0826 170.111 6.76763 168.434C6.57217 168.15 6.48259 167.867 6.52331 167.608C6.75949 165.956 11.7925 167.149 15.5876 163.469Z" fill="url(#paint36_linear_34_402)"/>
</g>
<path d="M52.268 90.4606C52.268 90.4606 51.7305 94.8912 50.1343 95.9091C48.5381 96.9271 45.9564 98.2454 45.6714 98.6125C45.3864 98.9713 55.5582 100.089 60.5993 97.4861C58.938 97.1273 58.49 97.0022 58.49 97.0022C58.0421 96.8687 57.1952 96.6267 56.3563 96.1344C55.7862 95.8007 54.8578 95.1415 54.0108 93.9066L54.0271 91.4535L52.268 90.4606Z" fill="url(#paint37_linear_34_402)"/>
<path d="M52.0234 92.0292C52.0234 92.0292 53.0659 93.4894 54.6946 92.8803C56.1524 92.338 55.281 88.4664 54.1246 88.0242C53.7418 87.874 53.0251 87.9407 52.5528 88.2495C52.2189 88.4664 51.3312 89.5928 51.8361 90.8695C51.4696 90.761 51.1439 90.8611 51.0624 91.0447C50.9566 91.2783 51.2742 91.6037 51.3393 91.6788C51.5918 91.9375 51.8931 92.0042 52.0234 92.0292Z" fill="url(#paint38_linear_34_402)"/>
<path d="M65.3554 98.529L62.9773 97.7697C62.9773 97.7697 63.9302 101.433 64.5165 104.67C64.7446 105.963 63.8731 107.19 62.5945 107.357L54.2551 108.408C53.0579 108.558 51.8771 108.058 51.1278 107.09L44.5556 98.529L42.5033 99.4218C42.5033 99.4218 51.5269 110.569 51.3395 115.667C51.2337 118.396 51.1604 121.258 51.1197 123.327C51.0871 124.962 49.7433 126.256 48.1471 126.189L42.7069 125.972L42.4219 128.392L46.0785 128.876C46.7952 129.026 48.0249 129.393 48.8882 130.461C49.7026 131.462 49.8736 132.672 49.8981 133.582C50.0854 139.464 45.1257 154.875 48.5136 160.432C51.82 165.856 65.5915 165.989 69.3296 160.432C72.1882 156.185 67.2448 151.479 66.5851 135.217C66.3978 130.594 66.577 125.655 66.6258 124.32C66.9271 116.118 67.6764 112.497 66.9597 106.422C66.5525 102.976 65.8521 100.231 65.3554 98.529Z" fill="url(#paint39_linear_34_402)"/>
<path d="M41.4526 128.016C41.4526 128.016 46.0866 126.297 46.7707 126.297C47.4548 126.297 49.9061 127.833 50.0853 128.016C50.2645 128.2 48.1307 128.158 47.357 128.292C46.5834 128.425 43.0489 130.903 41.4526 128.016Z" fill="url(#paint40_linear_34_402)"/>
<path d="M38.7246 101.583C38.7246 101.583 25.4173 110.594 24.1387 119.305C22.8682 128.016 41.4528 129.418 41.4528 129.418L42.6256 126.823C42.6256 126.823 35.0516 121.967 34.8643 121.041C34.677 120.115 47.4224 110.611 47.4224 110.611L38.7246 101.583Z" fill="white"/>
<path d="M210.009 35.2074C216.49 35.2074 221.745 29.8243 221.745 23.1839C221.745 16.5435 216.49 11.1604 210.009 11.1604C203.528 11.1604 198.274 16.5435 198.274 23.1839C198.274 29.8243 203.528 35.2074 210.009 35.2074Z" fill="url(#paint41_linear_34_402)"/>
<path opacity="0.5" d="M210.009 29.2918C214.421 29.2918 217.998 25.6271 217.998 21.1064C217.998 16.5858 214.421 12.9211 210.009 12.9211C205.597 12.9211 202.02 16.5858 202.02 21.1064C202.02 25.6271 205.597 29.2918 210.009 29.2918Z" fill="white"/>
<path d="M184.893 17.7186C189.607 17.7186 193.428 13.8036 193.428 8.97423C193.428 4.14485 189.607 0.229858 184.893 0.229858C180.179 0.229858 176.358 4.14485 176.358 8.97423C176.358 13.8036 180.179 17.7186 184.893 17.7186Z" fill="url(#paint42_linear_34_402)"/>
<path opacity="0.5" d="M184.893 13.4133C188.1 13.4133 190.7 10.7497 190.7 7.46407C190.7 4.17843 188.1 1.51489 184.893 1.51489C181.686 1.51489 179.086 4.17843 179.086 7.46407C179.086 10.7497 181.686 13.4133 184.893 13.4133Z" fill="white"/>
<defs>
<linearGradient id="paint0_linear_34_402" x1="159.123" y1="134.992" x2="219.633" y2="134.992" gradientUnits="userSpaceOnUse">
<stop stop-color="#AA80F9"/>
<stop offset="0.9964" stop-color="#6165D7"/>
</linearGradient>
<linearGradient id="paint1_linear_34_402" x1="154.522" y1="129.887" x2="225.045" y2="180.011" gradientUnits="userSpaceOnUse">
<stop stop-color="#AA80F9"/>
<stop offset="0.9964" stop-color="#6165D7"/>
</linearGradient>
<linearGradient id="paint2_linear_34_402" x1="144.688" y1="115.526" x2="240.396" y2="183.55" gradientUnits="userSpaceOnUse">
<stop stop-color="#AA80F9"/>
<stop offset="0.9964" stop-color="#6165D7"/>
</linearGradient>
<linearGradient id="paint3_linear_34_402" x1="184.891" y1="58.4706" x2="227.021" y2="58.4706" gradientUnits="userSpaceOnUse">
<stop stop-color="#444B8C"/>
<stop offset="0.9964" stop-color="#26264F"/>
</linearGradient>
<linearGradient id="paint4_linear_34_402" x1="194.933" y1="50.713" x2="197.203" y2="52.3266" gradientUnits="userSpaceOnUse">
<stop stop-color="#AA80F9"/>
<stop offset="0.9964" stop-color="#6165D7"/>
</linearGradient>
<linearGradient id="paint5_linear_34_402" x1="197.481" y1="52.3807" x2="199.751" y2="53.9943" gradientUnits="userSpaceOnUse">
<stop stop-color="#AA80F9"/>
<stop offset="0.9964" stop-color="#6165D7"/>
</linearGradient>
<linearGradient id="paint6_linear_34_402" x1="200.028" y1="54.0483" x2="202.298" y2="55.662" gradientUnits="userSpaceOnUse">
<stop stop-color="#AA80F9"/>
<stop offset="0.9964" stop-color="#6165D7"/>
</linearGradient>
<linearGradient id="paint7_linear_34_402" x1="202.576" y1="55.7162" x2="204.846" y2="57.3298" gradientUnits="userSpaceOnUse">
<stop stop-color="#AA80F9"/>
<stop offset="0.9964" stop-color="#6165D7"/>
</linearGradient>
<linearGradient id="paint8_linear_34_402" x1="205.123" y1="57.3838" x2="207.393" y2="58.9975" gradientUnits="userSpaceOnUse">
<stop stop-color="#AA80F9"/>
<stop offset="0.9964" stop-color="#6165D7"/>
</linearGradient>
<linearGradient id="paint9_linear_34_402" x1="207.67" y1="59.0516" x2="209.941" y2="60.6653" gradientUnits="userSpaceOnUse">
<stop stop-color="#AA80F9"/>
<stop offset="0.9964" stop-color="#6165D7"/>
</linearGradient>
<linearGradient id="paint10_linear_34_402" x1="210.218" y1="60.7192" x2="212.488" y2="62.3328" gradientUnits="userSpaceOnUse">
<stop stop-color="#AA80F9"/>
<stop offset="0.9964" stop-color="#6165D7"/>
</linearGradient>
<linearGradient id="paint11_linear_34_402" x1="212.765" y1="62.387" x2="215.036" y2="64.0006" gradientUnits="userSpaceOnUse">
<stop stop-color="#AA80F9"/>
<stop offset="0.9964" stop-color="#6165D7"/>
</linearGradient>
<linearGradient id="paint12_linear_34_402" x1="215.313" y1="64.0548" x2="217.583" y2="65.6684" gradientUnits="userSpaceOnUse">
<stop stop-color="#AA80F9"/>
<stop offset="0.9964" stop-color="#6165D7"/>
</linearGradient>
<linearGradient id="paint13_linear_34_402" x1="192.625" y1="48.1209" x2="205.487" y2="57.2625" gradientUnits="userSpaceOnUse">
<stop stop-color="#444B8C"/>
<stop offset="0.9964" stop-color="#26264F"/>
</linearGradient>
<linearGradient id="paint14_linear_34_402" x1="49.9148" y1="38.5063" x2="44.8951" y2="105.967" gradientUnits="userSpaceOnUse">
<stop offset="0.00359712" stop-color="#E38DDD"/>
<stop offset="1" stop-color="#9571F6"/>
</linearGradient>
<linearGradient id="paint15_linear_34_402" x1="64.6799" y1="35.595" x2="62.8329" y2="60.4177" gradientUnits="userSpaceOnUse">
<stop offset="0.00359712" stop-color="#E38DDD"/>
<stop offset="1" stop-color="#9571F6"/>
</linearGradient>
<linearGradient id="paint16_linear_34_402" x1="48.4639" y1="18.4963" x2="45.0405" y2="64.5047" gradientUnits="userSpaceOnUse">
<stop offset="0.00359712" stop-color="#E38DDD"/>
<stop offset="1" stop-color="#9571F6"/>
</linearGradient>
<linearGradient id="paint17_linear_34_402" x1="26.9599" y1="23.3369" x2="22.7384" y2="80.0714" gradientUnits="userSpaceOnUse">
<stop offset="0.00359712" stop-color="#E38DDD"/>
<stop offset="1" stop-color="#9571F6"/>
</linearGradient>
<linearGradient id="paint18_linear_34_402" x1="56.2316" y1="0.592968" x2="53.7217" y2="34.3234" gradientUnits="userSpaceOnUse">
<stop offset="0.00359712" stop-color="#E38DDD"/>
<stop offset="1" stop-color="#9571F6"/>
</linearGradient>
<linearGradient id="paint19_linear_34_402" x1="40.4768" y1="52.0065" x2="122.12" y2="20.6979" gradientUnits="userSpaceOnUse">
<stop stop-color="#311944"/>
<stop offset="1" stop-color="#893976"/>
</linearGradient>
<linearGradient id="paint20_linear_34_402" x1="169.106" y1="92.8422" x2="72.2823" y2="260.539" gradientUnits="userSpaceOnUse">
<stop stop-color="#FF9085"/>
<stop offset="1" stop-color="#FB6FBB"/>
</linearGradient>
<linearGradient id="paint21_linear_34_402" x1="77.663" y1="135.294" x2="178.484" y2="135.294" gradientUnits="userSpaceOnUse">
<stop stop-color="#FF9085"/>
<stop offset="1" stop-color="#FB6FBB"/>
</linearGradient>
<linearGradient id="paint22_linear_34_402" x1="82.0299" y1="63.2058" x2="135.456" y2="104.409" gradientUnits="userSpaceOnUse">
<stop stop-color="#311944"/>
<stop offset="1" stop-color="#893976"/>
</linearGradient>
<linearGradient id="paint23_linear_34_402" x1="70.635" y1="55.8847" x2="92.1283" y2="69.1636" gradientUnits="userSpaceOnUse">
<stop stop-color="#311944"/>
<stop offset="1" stop-color="#893976"/>
</linearGradient>
<linearGradient id="paint24_linear_34_402" x1="202.39" y1="-23.184" x2="121.64" y2="24.7826" gradientUnits="userSpaceOnUse">
<stop stop-color="#311944"/>
<stop offset="1" stop-color="#893976"/>
</linearGradient>
<linearGradient id="paint25_linear_34_402" x1="82.1035" y1="30.6961" x2="169.074" y2="37.1748" gradientUnits="userSpaceOnUse">
<stop stop-color="#311944"/>
<stop offset="1" stop-color="#893976"/>
</linearGradient>
<linearGradient id="paint26_linear_34_402" x1="89.6884" y1="34.2668" x2="48.9535" y2="11.5092" gradientUnits="userSpaceOnUse">
<stop stop-color="#444B8C"/>
<stop offset="0.9964" stop-color="#26264F"/>
</linearGradient>
<linearGradient id="paint27_linear_34_402" x1="56.5153" y1="211.67" x2="54.7266" y2="243.094" gradientUnits="userSpaceOnUse">
<stop stop-color="#444B8C"/>
<stop offset="0.9964" stop-color="#26264F"/>
</linearGradient>
<linearGradient id="paint28_linear_34_402" x1="52.1761" y1="221.749" x2="54.728" y2="221.749" gradientUnits="userSpaceOnUse">
<stop stop-color="#FFC444"/>
<stop offset="0.9964" stop-color="#F36F56"/>
</linearGradient>
<linearGradient id="paint29_linear_34_402" x1="25.6698" y1="209.915" x2="23.8812" y2="241.338" gradientUnits="userSpaceOnUse">
<stop stop-color="#444B8C"/>
<stop offset="0.9964" stop-color="#26264F"/>
</linearGradient>
<linearGradient id="paint30_linear_34_402" x1="23.7407" y1="220.137" x2="28.816" y2="220.137" gradientUnits="userSpaceOnUse">
<stop stop-color="#FFC444"/>
<stop offset="0.9964" stop-color="#F36F56"/>
</linearGradient>
<linearGradient id="paint31_linear_34_402" x1="56.8074" y1="188.147" x2="37.2807" y2="185.169" gradientUnits="userSpaceOnUse">
<stop stop-color="#444B8C"/>
<stop offset="0.9964" stop-color="#26264F"/>
</linearGradient>
<linearGradient id="paint32_linear_34_402" x1="55.2111" y1="167.142" x2="-2.12256" y2="219.149" gradientUnits="userSpaceOnUse">
<stop stop-color="#444B8C"/>
<stop offset="0.9964" stop-color="#26264F"/>
</linearGradient>
<linearGradient id="paint33_linear_34_402" x1="94.626" y1="115.447" x2="80.7607" y2="151.695" gradientUnits="userSpaceOnUse">
<stop stop-color="#FFC444"/>
<stop offset="0.9964" stop-color="#F36F56"/>
</linearGradient>
<linearGradient id="paint34_linear_34_402" x1="24.9756" y1="132.711" x2="37.0694" y2="115.988" gradientUnits="userSpaceOnUse">
<stop stop-color="#444B8C"/>
<stop offset="0.9964" stop-color="#26264F"/>
</linearGradient>
<linearGradient id="paint35_linear_34_402" x1="91.7034" y1="118.655" x2="59.9794" y2="118.655" gradientUnits="userSpaceOnUse">
<stop stop-color="#AA80F9"/>
<stop offset="0.9964" stop-color="#6165D7"/>
</linearGradient>
<linearGradient id="paint36_linear_34_402" x1="37.6147" y1="96.7028" x2="27.4807" y2="157.192" gradientUnits="userSpaceOnUse">
<stop stop-color="#AA80F9"/>
<stop offset="0.9964" stop-color="#6165D7"/>
</linearGradient>
<linearGradient id="paint37_linear_34_402" x1="53.6825" y1="98.8721" x2="43.0076" y2="83.7474" gradientUnits="userSpaceOnUse">
<stop stop-color="#FFC444"/>
<stop offset="0.9964" stop-color="#F36F56"/>
</linearGradient>
<linearGradient id="paint38_linear_34_402" x1="54.6187" y1="91.0778" x2="38.0787" y2="81.3587" gradientUnits="userSpaceOnUse">
<stop stop-color="#FFC444"/>
<stop offset="0.9964" stop-color="#F36F56"/>
</linearGradient>
<linearGradient id="paint39_linear_34_402" x1="70.2001" y1="131.157" x2="42.4106" y2="131.157" gradientUnits="userSpaceOnUse">
<stop stop-color="#AA80F9"/>
<stop offset="0.9964" stop-color="#6165D7"/>
</linearGradient>
<linearGradient id="paint40_linear_34_402" x1="47.2066" y1="125.522" x2="41.5523" y2="134.996" gradientUnits="userSpaceOnUse">
<stop stop-color="#FFC444"/>
<stop offset="0.9964" stop-color="#F36F56"/>
</linearGradient>
<linearGradient id="paint41_linear_34_402" x1="211.443" y1="2.93866" x2="206.733" y2="66.2391" gradientUnits="userSpaceOnUse">
<stop offset="0.00359712" stop-color="#E38DDD"/>
<stop offset="1" stop-color="#9571F6"/>
</linearGradient>
<linearGradient id="paint42_linear_34_402" x1="185.934" y1="-5.74079" x2="182.511" y2="40.2676" gradientUnits="userSpaceOnUse">
<stop offset="0.00359712" stop-color="#E38DDD"/>
<stop offset="1" stop-color="#9571F6"/>
</linearGradient>
</defs>
</svg>
