<svg width="55" height="53" viewBox="0 0 55 53" fill="none" xmlns="http://www.w3.org/2000/svg">
<g clip-path="url(#clip0_1_107)">
<path d="M49.2786 5.83212L37.0853 2.2893L31.3473 0.615985C31.2363 0.600839 31.1237 0.600839 31.0126 0.615985H23.2185C23.1036 0.599685 22.9868 0.599685 22.8719 0.615985L19.9431 1.45841L17.1339 2.27776L4.94066 5.82058C4.41797 5.97291 4.06861 6.44793 4.09192 6.97459V48.7614C4.09192 49.3987 4.62717 49.9154 5.28733 49.9154H10.7623V51.6464C10.7623 52.2837 11.2976 52.8004 11.9577 52.8004H21.3178C23.4216 52.654 25.436 51.9202 27.1156 50.6886C28.821 51.9307 30.8653 52.6648 32.997 52.8004H42.2615C42.9216 52.8004 43.4569 52.2837 43.4569 51.6464V49.9154H48.9319C49.592 49.9154 50.1273 49.3987 50.1273 48.7614V6.92843C50.1236 6.42297 49.7796 5.97868 49.2786 5.83212ZM32.0168 3.22405L33.0329 3.5241L35.0412 4.11264L33.4154 7.30925C33.1417 7.8502 33.3446 8.50337 33.8816 8.80947L36.2724 10.1943L29.2315 24.7118L32.0168 3.22405ZM19.9431 3.89338L22.2622 3.21251L25.0475 24.7002L17.8989 10.1827L20.2898 8.79793C20.8268 8.49183 21.0297 7.83866 20.756 7.29771L19.1302 4.1011L19.9431 3.89338ZM25.9202 48.4498C25.1312 49.8461 22.1666 50.4116 21.2341 50.4924H13.1651V19.4379C13.1651 18.8006 12.6299 18.2839 11.9697 18.2839C11.3095 18.2839 10.7743 18.8006 10.7743 19.4379V47.6073H6.4947V7.79394L16.8709 4.75889L18.1858 7.33233L15.795 8.71715C15.2602 9.01878 15.0527 9.66488 15.3169 10.2058L25.9202 32.0051V48.4498ZM24.5813 2.83169H29.6618L27.1156 22.4499L24.5813 2.83169ZM47.7365 47.6073H43.4569V19.4379C43.4569 18.8006 42.9216 18.2839 42.2615 18.2839C41.6013 18.2839 41.0661 18.8006 41.0661 19.4379V50.4924H33.0926C32.0765 50.4116 29.1 49.8461 28.311 48.4498V44.0992H29.7096C30.3698 44.0992 30.905 43.5824 30.905 42.9451C30.905 42.3078 30.3698 41.7911 29.7096 41.7911H28.311V36.7481H29.7096C30.3698 36.7481 30.905 36.2314 30.905 35.5941C30.905 34.9568 30.3698 34.4401 29.7096 34.4401H28.311V32.0051L38.9502 10.2174C39.2144 9.67642 39.0068 9.03032 38.472 8.72869L36.0812 7.34387L37.3603 4.75889L47.7365 7.7824V47.6073Z" fill="#38106A"/>
<path d="M49.2786 5.83212L37.0853 2.2893L31.3473 0.615985C31.2363 0.600839 31.1237 0.600839 31.0126 0.615985H23.2185C23.1036 0.599685 22.9868 0.599685 22.8719 0.615985L19.9431 1.45841L17.1339 2.27776L4.94066 5.82058C4.41797 5.97291 4.06861 6.44793 4.09192 6.97459V48.7614C4.09192 49.3987 4.62717 49.9154 5.28733 49.9154H10.7623V51.6464C10.7623 52.2837 11.2976 52.8004 11.9577 52.8004H21.3178C23.4216 52.654 25.436 51.9202 27.1156 50.6886C28.821 51.9307 30.8653 52.6648 32.997 52.8004H42.2615C42.9216 52.8004 43.4569 52.2837 43.4569 51.6464V49.9154H48.9319C49.592 49.9154 50.1273 49.3987 50.1273 48.7614V6.92843C50.1236 6.42297 49.7796 5.97868 49.2786 5.83212ZM32.0168 3.22405L33.0329 3.5241L35.0412 4.11264L33.4154 7.30925C33.1417 7.8502 33.3446 8.50337 33.8816 8.80947L36.2724 10.1943L29.2315 24.7118L32.0168 3.22405ZM19.9431 3.89338L22.2622 3.21251L25.0475 24.7002L17.8989 10.1827L20.2898 8.79793C20.8268 8.49183 21.0297 7.83866 20.756 7.29771L19.1302 4.1011L19.9431 3.89338ZM25.9202 48.4498C25.1312 49.8461 22.1666 50.4116 21.2341 50.4924H13.1651V19.4379C13.1651 18.8006 12.6299 18.2839 11.9697 18.2839C11.3095 18.2839 10.7743 18.8006 10.7743 19.4379V47.6073H6.4947V7.79394L16.8709 4.75889L18.1858 7.33233L15.795 8.71715C15.2602 9.01878 15.0527 9.66488 15.3169 10.2058L25.9202 32.0051V48.4498ZM24.5813 2.83169H29.6618L27.1156 22.4499L24.5813 2.83169ZM47.7365 47.6073H43.4569V19.4379C43.4569 18.8006 42.9216 18.2839 42.2615 18.2839C41.6013 18.2839 41.0661 18.8006 41.0661 19.4379V50.4924H33.0926C32.0765 50.4116 29.1 49.8461 28.311 48.4498V44.0992H29.7096C30.3698 44.0992 30.905 43.5824 30.905 42.9451C30.905 42.3078 30.3698 41.7911 29.7096 41.7911H28.311V36.7481H29.7096C30.3698 36.7481 30.905 36.2314 30.905 35.5941C30.905 34.9568 30.3698 34.4401 29.7096 34.4401H28.311V32.0051L38.9502 10.2174C39.2144 9.67642 39.0068 9.03032 38.472 8.72869L36.0812 7.34387L37.3603 4.75889L47.7365 7.7824V47.6073Z" fill="#6D5FBF"/>
<path d="M21.8319 36.3098H16.3569C15.0364 36.3098 13.9661 37.3431 13.9661 38.6178V39.4833C13.9661 40.7581 15.0364 41.7914 16.3569 41.7914H21.8319C23.1524 41.7914 24.2227 40.7581 24.2227 39.4833V38.6178C24.2227 37.3431 23.1522 36.3098 21.8319 36.3098ZM21.8319 39.4833H16.3569V38.6178H21.8319V39.4833Z" fill="#38106A"/>
<path d="M21.8319 36.3098H16.3569C15.0364 36.3098 13.9661 37.3431 13.9661 38.6178V39.4833C13.9661 40.7581 15.0364 41.7914 16.3569 41.7914H21.8319C23.1524 41.7914 24.2227 40.7581 24.2227 39.4833V38.6178C24.2227 37.3431 23.1522 36.3098 21.8319 36.3098ZM21.8319 39.4833H16.3569V38.6178H21.8319V39.4833Z" fill="#6D5FBF"/>
<path d="M37.8744 36.3098H32.3994C31.0789 36.3098 30.0085 37.3431 30.0085 38.6178V39.4833C30.0085 40.7581 31.0789 41.7914 32.3994 41.7914H37.8744C39.1948 41.7914 40.2652 40.7581 40.2652 39.4833V38.6178C40.2652 37.3431 39.1947 36.3098 37.8744 36.3098ZM37.8744 39.4833H32.3994V38.6178H37.8744V39.4833Z" fill="#38106A"/>
<path d="M37.8744 36.3098H32.3994C31.0789 36.3098 30.0085 37.3431 30.0085 38.6178V39.4833C30.0085 40.7581 31.0789 41.7914 32.3994 41.7914H37.8744C39.1948 41.7914 40.2652 40.7581 40.2652 39.4833V38.6178C40.2652 37.3431 39.1947 36.3098 37.8744 36.3098ZM37.8744 39.4833H32.3994V38.6178H37.8744V39.4833Z" fill="#6D5FBF"/>
</g>
<defs>
<clipPath id="clip0_1_107">
<rect width="54.0692" height="52.1965" fill="white" transform="translate(0.0744629 0.603882)"/>
</clipPath>
</defs>
</svg>
