<svg width="39" height="39" viewBox="0 0 39 39" fill="none" xmlns="http://www.w3.org/2000/svg">
<ellipse opacity="0.1" cx="19.3234" cy="19.4103" rx="18.9874" ry="18.9807" fill="#CE1567"/>
<g clip-path="url(#clip0_215_61)">
<path d="M31.0498 13.2955L20.1529 8.03495C20.0563 7.98835 19.9438 7.98835 19.8472 8.03495L8.95023 13.2955C8.82873 13.3542 8.75153 13.4772 8.75153 13.6121V26.3879C8.75153 26.5228 8.82873 26.6458 8.95023 26.7045L19.8472 31.9651C19.8954 31.9884 19.9478 32 20 32C20.0523 32 20.1046 31.9884 20.1529 31.9651L31.0498 26.7045C31.1713 26.6458 31.2485 26.5228 31.2485 26.3879V13.6122C31.2485 13.4772 31.1713 13.3542 31.0498 13.2955ZM20 8.74196L30.0883 13.6121L27.1639 15.0239C27.1454 15.0098 27.1259 14.9968 27.1044 14.9864L17.0846 10.1494L20 8.74196ZM16.2907 10.5469L26.3643 15.41L24.3011 16.406L14.2316 11.5449L16.2907 10.5469ZM26.6 16.0769V19.7588L24.6728 20.6891V17.0073L26.6 16.0769ZM30.5454 26.1673L20.3516 31.0883V19.0934L22.7831 17.9195C22.958 17.8351 23.0313 17.625 22.9469 17.4501C22.8624 17.2753 22.6523 17.2019 22.4774 17.2863L20 18.4824L19.0252 18.0117C18.8503 17.9272 18.6402 18.0006 18.5558 18.1755C18.4713 18.3503 18.5447 18.5605 18.7195 18.6449L19.6485 19.0934V31.0883L9.45465 26.1672V14.1722L17.2172 17.9197C17.2664 17.9435 17.3185 17.9547 17.3697 17.9547C17.5004 17.9547 17.6259 17.8815 17.6866 17.7559C17.771 17.5811 17.6977 17.3709 17.5228 17.2865L9.91173 13.6121L13.4042 11.9261L23.9648 17.0244C23.9664 17.0266 23.9681 17.0285 23.9697 17.0306V21.2493C23.9697 21.3703 24.0319 21.4827 24.1344 21.5471C24.1913 21.5828 24.2562 21.6009 24.3213 21.6009C24.3734 21.6009 24.4257 21.5893 24.4741 21.5659L27.1044 20.2961C27.2259 20.2374 27.3031 20.1144 27.3031 19.9795V15.7375L30.5454 14.1723V26.1673Z" fill="#CE1567"/>
<path d="M12.3559 24.8038L10.7568 24.0318C10.5818 23.9473 10.3717 24.0207 10.2873 24.1955C10.2029 24.3704 10.2762 24.5806 10.451 24.665L12.0502 25.437C12.0995 25.4608 12.1515 25.472 12.2028 25.472C12.3335 25.472 12.459 25.3988 12.5196 25.2732C12.6041 25.0983 12.5307 24.8882 12.3559 24.8038Z" fill="#CE1567"/>
<path d="M13.8277 23.8457L10.759 22.3643C10.5841 22.2799 10.374 22.3532 10.2895 22.5281C10.2052 22.7029 10.2785 22.9131 10.4533 22.9975L13.522 24.4789C13.5713 24.5027 13.6233 24.514 13.6746 24.514C13.8053 24.514 13.9308 24.4408 13.9914 24.3152C14.0758 24.1403 14.0025 23.9301 13.8277 23.8457Z" fill="#CE1567"/>
</g>
<defs>
<clipPath id="clip0_215_61">
<rect width="24" height="24" fill="white" transform="translate(8 8)"/>
</clipPath>
</defs>
</svg>
