<svg width="224" height="219" viewBox="0 0 224 219" fill="none" xmlns="http://www.w3.org/2000/svg">
<path opacity="0.3" d="M28.0956 186.178C32.5912 190.819 36.8402 193.82 40.198 196.187C79.68 224.002 126.403 215.9 136.325 213.915C150.989 210.993 179.332 205.336 199.821 181.678C230.829 145.878 225.999 89.4816 201.953 52.2515C197.553 45.4384 174.319 7.64574 127.103 1.58266C98.5218 -2.08175 65.2144 5.30958 41.0891 25.163C-9.55635 66.8154 -5.95187 150.98 28.0956 186.178Z" fill="url(#paint0_linear_34_215)"/>
<path d="M0.0795288 6.07541C-0.397881 4.73935 1.46403 3.61424 2.76896 4.44245C16.0729 12.8651 48.6643 38.852 47.0092 90.5522C44.9325 155.418 63.2174 177.045 84.335 189.171C84.335 189.171 56.7644 185.358 37.2541 163.52C-10.6384 109.89 8.62522 29.8433 0.0795288 6.07541Z" fill="url(#paint1_linear_34_215)"/>
<path d="M11.6011 25.0302C13.9165 31.9762 16.0728 38.969 17.9268 46.0166C19.8205 53.0563 21.4596 60.1507 22.8361 67.2842C24.1808 74.4255 25.3664 81.5903 26.186 88.7941C27.0453 95.9979 27.5466 103.233 28.0081 110.499C28.5253 117.758 28.9947 125.071 30.3474 132.345C31.6921 139.604 34.0792 146.815 37.9621 153.402C38.9329 155.043 39.9434 156.676 41.0574 158.238C42.1395 159.816 43.3012 161.356 44.4947 162.871C46.9056 165.895 49.5632 168.786 52.4675 171.489C58.2919 176.881 65.103 181.49 72.4631 185.217C73.2349 185.608 74.2614 185.381 74.7467 184.709C75.2241 184.053 75.0093 183.209 74.2693 182.803H74.2614C72.5029 181.85 70.7603 180.889 69.0814 179.857C68.23 179.35 67.4105 178.818 66.575 178.295C65.7634 177.748 64.9279 177.224 64.1402 176.654C60.9416 174.419 57.9418 171.997 55.1728 169.388C49.611 164.2 44.9642 158.254 41.2404 151.964C39.4182 148.8 37.8826 145.526 36.6493 142.151C35.4239 138.775 34.5009 135.306 33.8086 131.783C32.4321 124.727 31.8911 117.492 31.3182 110.241C30.7294 102.991 30.0848 95.701 29.0823 88.4659C28.5969 84.8484 28.024 81.2309 27.3875 77.6368C27.0771 75.8319 26.7271 74.0427 26.3849 72.2456C26.0189 70.4564 25.637 68.6672 25.2471 66.8779C23.6477 59.7366 21.7938 52.65 19.6773 45.6259C17.521 38.6096 15.1418 31.6558 12.4524 24.7958C12.3729 24.6005 12.1262 24.4989 11.8954 24.5692C11.6567 24.6317 11.5374 24.8427 11.6011 25.0302Z" fill="white"/>
<path d="M59.3976 149.409C58.3712 151.316 55.6977 151.581 54.2893 149.925C46.5075 140.799 26.8778 113.031 34.8347 72.683C41.5583 38.6094 41.9004 19.506 41.4469 10.8255C41.3514 8.9894 43.6987 8.09869 44.8843 9.52071C57.9893 25.2019 96.4529 80.2072 59.3976 149.409Z" fill="url(#paint2_linear_34_215)"/>
<path d="M56.4455 149.026C56.3978 149.049 56.3421 149.065 56.2864 149.081C55.8249 149.198 55.3555 148.932 55.2361 148.479C55.1008 147.971 41.7014 96.9116 48.8626 49.1258C48.9342 48.6648 49.3639 48.3445 49.8334 48.4148C50.3028 48.4851 50.629 48.907 50.5574 49.368C43.4439 96.81 56.7559 147.541 56.8911 148.049C57.0105 148.456 56.8116 148.862 56.4455 149.026Z" fill="white"/>
<path d="M196.781 43.4384L185.697 204.305C185.475 207.579 182.698 210.126 179.356 210.126H60.9177C57.6156 210.126 54.8705 207.649 54.5841 204.415L40.5402 43.4306C40.2378 39.9459 42.9113 36.8909 46.468 36.6722C90.4775 33.8906 139.102 34.2969 190.742 36.7893C194.299 36.9534 197.02 39.9537 196.781 43.4384Z" fill="url(#paint3_linear_34_215)"/>
<path d="M176.077 69.5892H62.9864C57.0983 69.5892 52.4595 74.5272 52.9369 80.2934L61.1722 180.053C61.5939 185.178 65.9384 189.132 71.174 189.155L167.333 189.577C172.584 189.6 176.977 185.655 177.422 180.514L186.127 80.3324C186.628 74.5506 181.989 69.5892 176.077 69.5892Z" fill="url(#paint4_linear_34_215)"/>
<path d="M50.5019 64.3937H189.859C190.392 64.3937 190.869 64.0656 191.052 63.5733C191.355 62.7608 190.742 61.9013 189.859 61.9013H50.5019C49.4755 61.9013 48.8787 63.0342 49.4596 63.8546C49.6983 64.1906 50.0882 64.3937 50.5019 64.3937Z" fill="url(#paint5_linear_34_215)"/>
<path d="M188.697 43.5087L187.679 57.1897C187.631 57.8538 187.066 58.3695 186.39 58.3695H156.424C155.724 58.3695 155.151 57.8225 155.135 57.1428L154.674 42.743C154.65 42.0163 155.255 41.4147 155.995 41.4382L187.44 42.1492C188.18 42.1648 188.753 42.782 188.697 43.5087Z" fill="url(#paint6_linear_34_215)"/>
<path d="M95.2199 48.173L94.6788 57.1894C94.6311 57.8535 94.0661 58.3692 93.3898 58.3692H55.0854C54.3852 58.3692 53.8123 57.8223 53.7964 57.1425L52.8574 47.4073C52.8336 46.6806 53.4383 46.079 54.1783 46.1025L93.9627 46.8135C94.7027 46.8291 95.2756 47.4463 95.2199 48.173Z" fill="url(#paint7_linear_34_215)"/>
<path d="M137.009 58.3693C132.32 58.3693 128.519 54.6368 128.519 50.0326C128.519 45.4283 132.32 41.6959 137.009 41.6959C141.698 41.6959 145.499 45.4283 145.499 50.0326C145.499 54.6368 141.698 58.3693 137.009 58.3693Z" fill="url(#paint8_linear_34_215)"/>
<path opacity="0.64" d="M136.134 55.0957C132.803 55.0957 130.103 52.4442 130.103 49.1733C130.103 45.9024 132.803 43.2509 136.134 43.2509C139.465 43.2509 142.166 45.9024 142.166 49.1733C142.166 52.4442 139.465 55.0957 136.134 55.0957Z" fill="white"/>
<path d="M112.733 58.3693C108.044 58.3693 104.243 54.6368 104.243 50.0326C104.243 45.4283 108.044 41.6959 112.733 41.6959C117.422 41.6959 121.223 45.4283 121.223 50.0326C121.223 54.6368 117.422 58.3693 112.733 58.3693Z" fill="url(#paint9_linear_34_215)"/>
<path opacity="0.64" d="M111.857 55.0957C108.526 55.0957 105.826 52.4442 105.826 49.1733C105.826 45.9024 108.526 43.2509 111.857 43.2509C115.188 43.2509 117.889 45.9024 117.889 49.1733C117.889 52.4442 115.188 55.0957 111.857 55.0957Z" fill="white"/>
<path d="M86.4913 44.5403H94.8938C95.0768 44.5403 95.228 44.3918 95.228 44.2121V41.0946C95.228 40.9149 95.0768 40.7665 94.8938 40.7665H86.4913C86.3082 40.7665 86.1571 40.9149 86.1571 41.0946V44.2121C86.1571 44.3918 86.3082 44.5403 86.4913 44.5403Z" fill="url(#paint10_linear_34_215)"/>
<path d="M75.5026 44.5403H83.9051C84.0881 44.5403 84.2393 44.3918 84.2393 44.2121V41.0946C84.2393 40.9149 84.0881 40.7665 83.9051 40.7665H75.5026C75.3196 40.7665 75.1684 40.9149 75.1684 41.0946V44.2121C75.1684 44.3918 75.3196 44.5403 75.5026 44.5403Z" fill="url(#paint11_linear_34_215)"/>
<path d="M64.1719 44.5403H72.5745C72.7575 44.5403 72.9087 44.3918 72.9087 44.2121V41.0946C72.9087 40.9149 72.7575 40.7665 72.5745 40.7665H64.1719C63.9889 40.7665 63.8377 40.9149 63.8377 41.0946V44.2121C63.8457 44.3918 63.9889 44.5403 64.1719 44.5403Z" fill="url(#paint12_linear_34_215)"/>
<path d="M53.1836 44.5403H61.5862C61.7692 44.5403 61.9204 44.3918 61.9204 44.2121V41.0946C61.9204 40.9149 61.7692 40.7665 61.5862 40.7665H53.1836C53.0006 40.7665 52.8494 40.9149 52.8494 41.0946V44.2121C52.8574 44.3918 53.0006 44.5403 53.1836 44.5403Z" fill="url(#paint13_linear_34_215)"/>
<path d="M60.4643 194.453H179.674C180.112 194.453 180.462 194.109 180.462 193.679C180.462 193.25 180.112 192.906 178.457 192.906H59.2469C60.0267 192.906 59.6766 193.25 59.6766 193.679C59.6766 194.109 60.0347 194.453 60.4643 194.453Z" fill="url(#paint14_linear_34_215)"/>
<path d="M120.077 173.443C94.6509 173.443 74.0387 153.203 74.0387 128.235C74.0387 103.268 94.6509 83.0279 120.077 83.0279C145.504 83.0279 166.116 103.268 166.116 128.235C166.116 153.203 145.504 173.443 120.077 173.443Z" fill="url(#paint15_linear_34_215)"/>
<path d="M119.616 164.543C98.9443 164.543 82.1867 148.088 82.1867 127.79C82.1867 107.492 98.9443 91.0365 119.616 91.0365C140.287 91.0365 157.045 107.492 157.045 127.79C157.045 148.088 140.287 164.543 119.616 164.543Z" fill="url(#paint16_linear_34_215)"/>
<path d="M119.616 162.418C100.139 162.418 84.3507 146.914 84.3507 127.79C84.3507 108.665 100.139 93.1614 119.616 93.1614C139.092 93.1614 154.88 108.665 154.88 127.79C154.88 146.914 139.092 162.418 119.616 162.418Z" fill="url(#paint17_linear_34_215)"/>
<path d="M105.954 98.9591C108.762 97.3965 112.351 97.7403 114.611 99.9983C118.207 103.592 122.082 109.945 117.889 118.75C111.579 132.009 112.82 153.238 125.894 158.863C125.894 158.863 94.2014 162.426 88.0905 132.439C84.1041 112.898 98.9516 102.85 105.954 98.9591Z" fill="url(#paint18_linear_34_215)"/>
<path opacity="0.53" d="M125.392 101.397C125.886 101.405 126.379 101.452 126.864 101.553C127.35 101.663 127.819 101.795 128.281 101.983C129.196 102.35 130.063 102.842 130.875 103.405C131.686 103.975 132.45 104.6 133.182 105.272C133.548 105.608 133.922 105.936 134.272 106.288C134.622 106.64 134.988 106.976 135.322 107.343C138.068 110.203 140.367 113.468 142.022 117.023C143.661 120.578 144.672 124.43 144.743 128.306C144.815 132.181 144.043 136.088 142.388 139.604C140.749 143.112 138.195 146.229 134.917 148.362C131.662 150.527 127.795 151.785 123.873 152.066C121.907 152.199 119.926 152.081 117.992 151.73C116.059 151.355 114.157 150.777 112.359 149.98C110.561 149.175 108.842 148.19 107.267 147.011C105.691 145.839 104.227 144.51 102.962 143.018C101.681 141.541 100.607 139.901 99.7394 138.158C98.9039 136.408 98.2753 134.556 98.0207 132.65C97.7422 130.744 97.8377 128.806 98.2833 126.946C98.5379 126.024 98.8323 125.102 99.254 124.235C99.437 123.79 99.6916 123.376 99.9224 122.954C100.042 122.743 100.177 122.547 100.304 122.336C100.432 122.133 100.559 121.93 100.71 121.735C102.938 118.563 106.336 116.187 110.147 115.25C113.966 114.32 118.104 114.695 121.732 116.227C121.963 116.312 122.186 116.422 122.408 116.531C122.631 116.641 122.854 116.734 123.077 116.852C123.507 117.094 123.944 117.313 124.358 117.586C125.201 118.094 125.981 118.695 126.713 119.336C128.177 120.633 129.403 122.196 130.206 123.954C131.026 125.704 131.336 127.665 131.058 129.572C130.795 131.47 129.936 133.306 128.527 134.627C127.119 135.939 125.154 136.619 123.188 136.611C121.231 136.603 119.258 135.963 117.746 134.72C116.998 134.103 116.353 133.345 115.987 132.462C115.613 131.587 115.566 130.587 115.876 129.689C116.027 129.243 116.274 128.829 116.608 128.493C116.942 128.157 117.364 127.923 117.833 127.814C118.295 127.696 118.796 127.704 119.25 127.829C119.48 127.892 119.695 127.993 119.894 128.118C120.093 128.243 120.26 128.415 120.411 128.595L120.419 128.603C120.467 128.657 120.547 128.673 120.61 128.626C120.666 128.579 120.674 128.501 120.634 128.439C120.475 128.228 120.284 128.04 120.061 127.892C119.838 127.751 119.6 127.626 119.337 127.556C118.828 127.407 118.279 127.392 117.762 127.517C117.244 127.626 116.751 127.899 116.369 128.267C115.987 128.634 115.709 129.095 115.534 129.587C115.184 130.564 115.215 131.673 115.605 132.634C115.995 133.603 116.672 134.424 117.459 135.088C119.043 136.416 121.119 137.119 123.196 137.15C125.273 137.182 127.397 136.486 128.949 135.072C130.493 133.658 131.432 131.697 131.734 129.681C131.885 128.665 131.901 127.634 131.758 126.618C131.615 125.595 131.32 124.61 130.898 123.673C130.063 121.797 128.782 120.141 127.254 118.774C126.49 118.086 125.679 117.461 124.804 116.922C124.374 116.633 123.92 116.398 123.475 116.148C123.252 116.023 123.013 115.922 122.782 115.805C122.552 115.695 122.321 115.578 122.082 115.484C118.303 113.851 113.974 113.429 109.932 114.375C105.89 115.344 102.262 117.828 99.8746 121.18C99.7155 121.383 99.5802 121.602 99.437 121.813C99.3017 122.032 99.1585 122.243 99.0233 122.461C98.7766 122.915 98.5061 123.352 98.3071 123.821C97.8456 124.743 97.5274 125.72 97.2489 126.712C96.7476 128.704 96.6282 130.798 96.9306 132.822C97.1932 134.853 97.8616 136.814 98.7368 138.658C99.6439 140.487 100.766 142.213 102.103 143.76C103.423 145.323 104.943 146.706 106.582 147.933C108.221 149.167 110.012 150.198 111.89 151.042C113.767 151.886 115.757 152.496 117.786 152.894C119.823 153.269 121.907 153.402 123.976 153.261C128.106 152.972 132.18 151.667 135.625 149.386C139.102 147.128 141.823 143.831 143.542 140.135C145.261 136.432 146.072 132.345 145.953 128.298C145.834 124.235 144.751 120.243 142.977 116.617C141.211 112.976 138.76 109.687 135.879 106.858C135.529 106.499 135.147 106.163 134.773 105.819C134.407 105.475 134.01 105.155 133.628 104.827C132.864 104.171 132.052 103.553 131.193 102.999C130.341 102.444 129.426 101.96 128.456 101.616C127.97 101.444 127.469 101.327 126.96 101.233C126.451 101.147 125.933 101.124 125.416 101.139C125.345 101.139 125.281 101.202 125.289 101.272C125.257 101.342 125.313 101.397 125.392 101.397Z" fill="white"/>
<path d="M176.833 101.412C181.536 103.17 180.843 107.71 184.854 109.882C189.5 112.398 197.497 110.116 199.701 105.85C201.579 102.201 198.595 98.2947 200.696 96.5758C202.367 95.2085 204.634 97.3728 208.414 96.7321C212.512 96.0367 217.095 92.2473 217.182 87.9656C217.286 82.7386 210.642 79.0039 205.613 78.4804C204.762 78.3944 198.524 77.7381 195.627 81.9182C194.227 83.9418 195.619 86.2702 194.314 87.0749C192.795 88.0047 190.901 85.2701 187.893 85.8248C185.665 86.2389 185.411 87.9891 182.928 89.1455C180.31 90.3643 178.79 89.0361 175.568 89.3486C173.412 89.5517 168.972 90.044 167.794 92.7942C166.776 95.1695 168.526 98.4666 170.786 100.006C172.926 101.443 174.207 100.428 176.833 101.412Z" fill="url(#paint19_linear_34_215)"/>
<path d="M185.649 213.274L185.49 216.454C185.562 217.056 186.007 217.532 186.58 217.602C187.543 217.72 189.604 217.837 191.116 217.673C191.776 217.595 192.206 216.884 192.007 216.212C191.641 214.985 190.964 213.141 189.994 212.055H186.668C186.055 212.055 185.578 212.626 185.649 213.274Z" fill="url(#paint20_linear_34_215)"/>
<path d="M174.072 175.583L173.467 179.091C173.467 179.091 175.496 199.304 175.862 207.391C175.918 208.656 175.584 209.914 174.907 210.993L171.374 216.626L180.358 211.422L180.533 210.344L179.061 208.36L180.986 185.717C181.098 184.389 180.819 183.052 180.183 181.873L178.329 178.443L174.072 175.583Z" fill="url(#paint21_linear_34_215)"/>
<path d="M170.778 217.439H173.643C174.176 217.439 174.685 217.197 175.011 216.783C175.902 215.642 177.756 213.415 178.64 213.36C179.833 213.282 179.682 217.439 179.682 217.439H180.35L181.194 212.274C181.409 210.977 180.748 209.688 179.563 209.079C179.563 209.079 179.292 211.055 177.812 211.931C176.332 212.806 171.805 215.939 171.805 215.939C171.805 215.939 171.248 215.861 170.643 215.97C169.736 216.118 169.863 217.439 170.778 217.439Z" fill="url(#paint22_linear_34_215)"/>
<path d="M191.259 175.888L190.137 181.404C190.137 181.404 192.922 188.084 192.222 194.21C191.521 200.335 188.625 210.149 188.625 210.149C188.625 210.149 191.657 213.977 189.118 214.454C186.58 214.931 185.283 213.657 186.254 211.047L184.67 175.583L191.259 175.888Z" fill="url(#paint23_linear_34_215)"/>
<path d="M190.272 142.463C190.272 142.463 194.346 149.362 194.346 155.089C194.346 158.816 191.307 180.959 191.307 180.959C191.307 180.959 179.618 182.67 172.719 180.959C172.719 180.959 169.736 157.261 170.372 153.23C171.208 147.948 175.003 141.557 175.003 141.557L190.272 142.463Z" fill="url(#paint24_linear_34_215)"/>
<path d="M195.866 113.031C195.866 113.031 179.666 112.96 171.94 115.078L172.354 127.509L174.987 141.565C174.987 141.565 179.308 145.01 190.265 142.471L191.259 137.619C191.577 136.627 193.606 126.735 193.67 125.704L195.866 113.031Z" fill="url(#paint25_linear_34_215)"/>
<path d="M190.575 141.322L190.272 142.463L189.62 163.653C189.572 165.301 188.259 166.645 186.588 166.747C183.787 166.918 179.499 167.075 176.014 166.739C174.462 166.59 173.324 165.246 173.436 163.715L174.995 141.549L174.812 140.377C174.812 140.385 186.779 139.252 190.575 141.322Z" fill="url(#paint26_linear_34_215)"/>
<path d="M181.766 103.569L186.27 114.109C186.27 114.109 180.995 117.21 178.281 115.734L176.698 104.975L181.766 103.569Z" fill="url(#paint27_linear_34_215)"/>
<path d="M187.304 113.82L185.92 111.82C185.92 111.82 183.795 112.609 182.586 113.14L182.347 115.187L180.788 113.64L177.708 113.742L177.668 116.125C178.098 117.601 179.467 117.937 181.512 118.328L182.594 116.062L184.623 117.641C184.623 117.633 187.177 115.703 187.304 113.82Z" fill="url(#paint28_linear_34_215)"/>
<path d="M172.059 99.4904C172.059 103.374 174.589 107.163 177.709 107.163C180.828 107.163 183.358 103.374 183.358 99.4904C183.358 95.6072 180.828 93.107 177.709 93.107C174.589 93.107 172.059 95.6072 172.059 99.4904Z" fill="url(#paint29_linear_34_215)"/>
<path d="M180.382 93.1068C180.382 93.1068 184.91 91.7005 184.846 94.4429C184.774 97.1775 183.255 98.8964 184.225 100.139C185.196 101.381 183.215 101.123 182.714 99.6387C182.212 98.1542 180.223 94.5367 178.473 94.9742C176.722 95.4117 175.226 99.9825 172.067 100.139C172.067 100.139 170.046 97.8651 170.603 94.9742C171.16 92.0755 173.619 89.5831 180.382 93.1068Z" fill="url(#paint30_linear_34_215)"/>
<path d="M158.278 142.885C163.848 133.384 171.948 115.077 171.948 115.077C171.948 115.077 175.17 120.859 173.117 127.29C171.749 131.563 165.168 140.182 160.911 145.471C160.036 144.166 158.962 143.33 158.278 142.885Z" fill="url(#paint31_linear_34_215)"/>
<path d="M146.979 150.472C148.355 147.417 152.286 147.565 153.973 147.784C154.498 147.854 155.031 147.659 155.365 147.253C156.185 146.268 157.18 144.745 158.27 142.877C158.954 143.323 160.028 144.167 160.896 145.464C158.755 148.128 156.694 150.464 156.694 150.464H146.979V150.472Z" fill="url(#paint32_linear_34_215)"/>
<path d="M195.866 113.031C195.866 113.031 204.404 123.36 204.34 130.275C204.276 137.189 194.76 142.252 194.76 142.252L191.593 141.737C191.593 141.737 206.313 132.079 193.67 124.829L195.866 113.031Z" fill="url(#paint33_linear_34_215)"/>
<path opacity="0.74" d="M211.342 92.2316C210.817 92.8098 210.085 93.1848 209.329 93.3802C208.565 93.5833 207.77 93.6224 206.982 93.5677C205.398 93.4661 203.847 93.0286 202.232 93.0442C201.428 93.0598 200.616 93.177 199.868 93.4896C199.494 93.6458 199.144 93.8568 198.834 94.1146C198.524 94.3724 198.261 94.6928 198.054 95.0288C197.633 95.7163 197.426 96.5055 197.322 97.279C197.219 98.0681 197.235 98.8494 197.235 99.6307C197.235 100.412 197.235 101.193 197.107 101.951C196.98 102.709 196.718 103.451 196.344 104.131C195.596 105.491 194.402 106.608 192.962 107.249C191.522 107.874 189.867 108.014 188.339 107.655C187.567 107.483 186.835 107.178 186.159 106.772C185.49 106.358 184.886 105.819 184.536 105.123L184.472 105.155C184.822 105.873 185.435 106.428 186.103 106.858C186.779 107.28 187.527 107.6 188.307 107.788C189.867 108.163 191.553 108.03 193.033 107.397C194.505 106.749 195.739 105.608 196.511 104.217C196.893 103.522 197.171 102.764 197.306 101.983C197.442 101.201 197.45 100.412 197.442 99.6307C197.434 98.8494 197.418 98.0681 197.513 97.3024C197.617 96.5367 197.808 95.7788 198.213 95.1147C198.412 94.7865 198.659 94.4896 198.953 94.2396C199.248 93.9896 199.582 93.7943 199.94 93.638C200.656 93.3333 201.452 93.2083 202.24 93.1926C203.823 93.1692 205.383 93.5989 206.974 93.6849C207.77 93.7318 208.589 93.6771 209.361 93.4661C210.133 93.2552 210.873 92.8645 211.398 92.2629L211.342 92.2316Z" fill="white"/>
<path opacity="0.74" d="M197.004 93.6225C196.216 93.9975 195.627 94.7007 195.269 95.4664C194.895 96.2399 194.752 97.0916 194.696 97.9354C194.633 98.7792 194.657 99.6309 194.625 100.467C194.593 101.311 194.506 102.155 194.227 102.952C193.678 104.538 192.286 105.819 190.638 106.264C188.991 106.71 187.129 106.303 185.825 105.217L185.777 105.264C187.098 106.374 188.983 106.788 190.654 106.342C192.333 105.889 193.742 104.6 194.315 102.983C194.601 102.178 194.689 101.319 194.72 100.475C194.752 99.6309 194.72 98.7792 194.776 97.9432C194.832 97.1072 194.975 96.2634 195.333 95.4977C195.683 94.7398 196.256 94.0522 197.028 93.685L197.004 93.6225Z" fill="white"/>
<path opacity="0.74" d="M177.151 91.5674C175.942 91.4814 174.716 91.3955 173.499 91.5439C172.886 91.6064 172.282 91.7393 171.709 91.9502C171.128 92.1612 170.571 92.4503 170.101 92.8487C169.624 93.2472 169.242 93.7707 169.083 94.3801C168.916 94.9817 168.995 95.6302 169.21 96.2006C169.425 96.7787 169.783 97.2866 170.189 97.7319C170.603 98.1773 171.064 98.568 171.526 98.9586L171.573 98.9117C171.136 98.4976 170.69 98.0913 170.308 97.6382C169.918 97.185 169.592 96.685 169.401 96.1381C169.202 95.5911 169.139 94.9973 169.298 94.4426C169.449 93.8879 169.807 93.4113 170.253 93.0284C170.698 92.6456 171.223 92.3565 171.788 92.1534C172.345 91.9502 172.934 91.8096 173.531 91.7314C174.724 91.5752 175.942 91.6064 177.159 91.6455L177.151 91.5674Z" fill="white"/>
<path d="M214.406 218.775C214.804 218.775 215.202 218.603 215.472 218.275C215.942 217.697 215.846 216.853 215.257 216.392L133.66 152.253C133.071 151.792 132.211 151.886 131.742 152.464C131.272 153.042 131.368 153.886 131.957 154.347L213.554 218.486C213.809 218.681 214.111 218.775 214.406 218.775Z" fill="url(#paint34_linear_34_215)"/>
<path d="M132.808 218.775C133.111 218.775 133.405 218.681 133.66 218.478L215.257 154.347C215.846 153.886 215.942 153.042 215.472 152.464C215.003 151.886 214.143 151.792 213.554 152.253L131.957 216.392C131.368 216.853 131.272 217.697 131.742 218.275C132.012 218.603 132.41 218.775 132.808 218.775Z" fill="url(#paint35_linear_34_215)"/>
<path d="M117.475 153.675H222.012C223.015 153.675 223.827 152.878 223.827 151.894C223.827 150.909 223.015 150.112 222.012 150.112H117.475C115.908 150.112 115.08 151.933 116.122 153.081C116.465 153.456 116.958 153.675 117.475 153.675Z" fill="url(#paint36_linear_34_215)"/>
<path d="M218.822 149.659C218.83 149.237 175.075 149.338 166.688 149.362C166.211 149.362 165.988 149.948 166.346 150.253C171.606 154.769 195.317 175.193 201.547 181.928C202.303 182.74 203.64 182.6 204.197 181.646C207.905 175.326 218.718 156.292 218.822 149.659Z" fill="url(#paint37_linear_34_215)"/>
<path d="M179.801 148.096C180.955 145.877 186.174 141.299 189.309 141.322C191.426 141.338 194.179 141.463 195.643 141.619C196.264 141.682 196.797 142.135 197.02 142.783L198.03 148.018C198.165 148.714 197.688 149.362 197.044 149.362H180.191C179.586 149.362 179.515 148.659 179.801 148.096ZM187.981 145.338L195.213 145.362C195.46 145.362 195.635 145.135 195.579 144.909L195.301 143.807C195.166 143.283 194.728 142.893 194.187 142.815C192.882 142.627 190.503 142.346 189.381 142.565C188.219 142.799 187.774 144.166 187.615 144.893C187.567 145.119 187.742 145.338 187.981 145.338Z" fill="url(#paint38_linear_34_215)"/>
<path d="M189.317 144.916H193.678V145.37H189.317V144.916Z" fill="url(#paint39_linear_34_215)"/>
<path d="M178.934 148.846H198.325V149.362H178.934V148.846Z" fill="url(#paint40_linear_34_215)"/>
<path d="M194.06 141.494L191.768 140.424C191.299 140.205 190.758 140.181 190.265 140.361L188.626 140.963C188.626 140.963 188.148 142.932 188.84 143.4C189.541 143.869 191.219 142.885 191.219 142.885C191.219 142.885 191.848 141.158 194.06 141.494Z" fill="url(#paint41_linear_34_215)"/>
<path d="M40.6119 152.823H50.4546V156.097H40.6119V152.823Z" fill="url(#paint42_linear_34_215)"/>
<path d="M38.4637 156.683C27.7935 170.153 18.46 194.358 26.4965 210.469C27.1649 211.813 28.9393 212.696 30.9046 212.696H61.284C63.329 212.696 65.1431 211.743 65.7638 210.329C67.196 207.071 69.4796 200.75 69.6149 193.358C69.7104 187.873 66.7982 182.584 61.5148 178.638L55.1413 173.88C54.282 173.239 53.8046 172.372 53.8125 171.481L54.0035 158.41C54.0114 157.636 53.6613 156.886 53.0089 156.284C52.1177 155.456 50.7491 154.98 49.301 154.98H42.5296C40.8587 154.98 39.2991 155.628 38.4637 156.683Z" fill="url(#paint43_linear_34_215)"/>
<path d="M39.4582 154.464H51.6084C52.1893 154.464 52.6587 153.987 52.6269 153.409L52.3564 148.417C52.3245 147.885 51.8789 147.471 51.3379 147.471H39.7844C39.2513 147.471 38.8057 147.878 38.7659 148.409L38.4397 153.401C38.4079 153.972 38.8773 154.464 39.4582 154.464Z" fill="url(#paint44_linear_34_215)"/>
<path d="M63.5914 138.587C63.4322 141.541 63.1776 152.143 67.538 157.066C67.8563 157.425 67.8642 157.949 67.5539 158.308C67.2197 158.699 66.6309 158.769 66.2171 158.456C64.204 156.956 58.7854 152.386 57.8067 146.002C57.759 145.666 57.5203 145.385 57.1941 145.26L50.6376 142.775C49.9294 142.51 49.7942 141.58 50.3909 141.127C52.6189 139.439 57.4805 136.462 62.8196 137.603C63.289 137.705 63.6152 138.119 63.5914 138.587Z" fill="url(#paint45_linear_34_215)"/>
<path d="M64.5541 132.454V140.557L69.7101 139.752C70.3227 139.658 70.7763 139.15 70.8001 138.549L70.9513 134.423C70.9752 133.767 70.4898 133.204 69.8294 133.126L64.5541 132.454Z" fill="url(#paint46_linear_34_215)"/>
<path d="M43.1504 132.798L34.9787 139.009C34.2308 139.58 33.7375 140.4 33.5863 141.314L33.3953 142.486C33.085 144.432 34.4058 146.268 36.3791 146.627L41.0179 147.471H50.4547L51.9029 143.252L60.8463 141.15L64.5542 140.556V132.454L45.4976 132.04C44.6463 132.024 43.8187 132.29 43.1504 132.798Z" fill="url(#paint47_linear_34_215)"/>
<path d="M45.2827 135.173L43.1024 144.666C42.9035 145.533 42.0521 146.104 41.153 145.963L37.079 145.322C36.2436 145.19 35.6309 144.486 35.6309 143.65V142.354C35.6309 141.83 35.8775 141.338 36.2993 141.017L44.5904 134.736C44.9166 134.494 45.3781 134.783 45.2827 135.173Z" fill="url(#paint48_linear_34_215)"/>
<path d="M40.0153 153.683C39.8243 153.683 39.6731 153.534 39.6731 153.347V148.667C39.6731 148.479 39.8243 148.331 40.0153 148.331C40.2062 148.331 40.3574 148.479 40.3574 148.667V153.347C40.3495 153.534 40.1983 153.683 40.0153 153.683Z" fill="url(#paint49_linear_34_215)"/>
<path d="M41.5984 153.683C41.4075 153.683 41.2564 153.534 41.2564 153.347V148.667C41.2564 148.479 41.4075 148.331 41.5984 148.331C41.7893 148.331 41.9404 148.479 41.9404 148.667V153.347C41.9404 153.534 41.7893 153.683 41.5984 153.683Z" fill="url(#paint50_linear_34_215)"/>
<path d="M43.1899 153.683C42.9989 153.683 42.8477 153.534 42.8477 153.347V148.667C42.8477 148.479 42.9989 148.331 43.1899 148.331C43.381 148.331 43.5322 148.479 43.5322 148.667V153.347C43.5322 153.534 43.381 153.683 43.1899 153.683Z" fill="url(#paint51_linear_34_215)"/>
<path d="M44.781 153.683C44.5902 153.683 44.439 153.534 44.439 153.347V148.667C44.439 148.479 44.5902 148.331 44.781 148.331C44.9719 148.331 45.123 148.479 45.123 148.667V153.347C45.123 153.534 44.9719 153.683 44.781 153.683Z" fill="url(#paint52_linear_34_215)"/>
<path d="M46.3726 153.683C46.1815 153.683 46.0303 153.534 46.0303 153.347V148.667C46.0303 148.479 46.1815 148.331 46.3726 148.331C46.5636 148.331 46.7148 148.479 46.7148 148.667V153.347C46.7148 153.534 46.5556 153.683 46.3726 153.683Z" fill="url(#paint53_linear_34_215)"/>
<path d="M47.9641 153.683C47.7732 153.683 47.6221 153.534 47.6221 153.347V148.667C47.6221 148.479 47.7732 148.331 47.9641 148.331C48.155 148.331 48.3062 148.479 48.3062 148.667V153.347C48.2982 153.534 48.1471 153.683 47.9641 153.683Z" fill="url(#paint54_linear_34_215)"/>
<path d="M49.5475 153.683C49.3565 153.683 49.2053 153.534 49.2053 153.347V148.667C49.2053 148.479 49.3565 148.331 49.5475 148.331C49.7385 148.331 49.8896 148.479 49.8896 148.667V153.347C49.8896 153.534 49.7385 153.683 49.5475 153.683Z" fill="url(#paint55_linear_34_215)"/>
<path d="M51.1388 153.683C50.9478 153.683 50.7967 153.534 50.7967 153.347V148.667C50.7967 148.479 50.9478 148.331 51.1388 148.331C51.3298 148.331 51.481 148.479 51.481 148.667V153.347C51.481 153.534 51.3298 153.683 51.1388 153.683Z" fill="url(#paint56_linear_34_215)"/>
<path d="M34.1195 179.74C32.4565 184.006 30.1013 191.843 30.5707 201.148C30.706 203.75 32.9021 205.789 35.5517 205.789H57.2897C59.6768 205.789 61.7296 204.133 62.1832 201.836L63.9973 192.764C64.3634 190.952 63.6472 189.092 62.1673 187.952C57.9183 184.709 48.6884 178.341 39.7211 176.677C37.342 176.24 34.9868 177.521 34.1195 179.74Z" fill="url(#paint57_linear_34_215)"/>
<defs>
<linearGradient id="paint0_linear_34_215" x1="-25.7139" y1="280.252" x2="165.589" y2="38.2978" gradientUnits="userSpaceOnUse">
<stop stop-color="#B37CFF"/>
<stop offset="1" stop-color="#F895E7"/>
</linearGradient>
<linearGradient id="paint1_linear_34_215" x1="-21.6248" y1="78.3468" x2="105.992" y2="116.222" gradientUnits="userSpaceOnUse">
<stop stop-color="#A737D5"/>
<stop offset="1" stop-color="#EF497A"/>
</linearGradient>
<linearGradient id="paint2_linear_34_215" x1="24.9474" y1="137.718" x2="74.5146" y2="21.9756" gradientUnits="userSpaceOnUse">
<stop stop-color="#CE1567"/>
<stop offset="1" stop-color="#7A1DBC"/>
</linearGradient>
<linearGradient id="paint3_linear_34_215" x1="70.8976" y1="24.7887" x2="251.391" y2="361.917" gradientUnits="userSpaceOnUse">
<stop stop-color="#53D8FF"/>
<stop offset="1" stop-color="#3840F7"/>
</linearGradient>
<linearGradient id="paint4_linear_34_215" x1="238.764" y1="175.122" x2="-155.594" y2="12.5665" gradientUnits="userSpaceOnUse">
<stop stop-color="#53D8FF"/>
<stop offset="1" stop-color="#3840F7"/>
</linearGradient>
<linearGradient id="paint5_linear_34_215" x1="114.761" y1="12.0511" x2="121.847" y2="81.3268" gradientUnits="userSpaceOnUse">
<stop stop-color="#53D8FF"/>
<stop offset="1" stop-color="#3840F7"/>
</linearGradient>
<linearGradient id="paint6_linear_34_215" x1="188.702" y1="49.9015" x2="154.673" y2="49.9015" gradientUnits="userSpaceOnUse">
<stop stop-color="#2B3582"/>
<stop offset="1" stop-color="#150E42"/>
</linearGradient>
<linearGradient id="paint7_linear_34_215" x1="95.2237" y1="52.2334" x2="52.856" y2="52.2334" gradientUnits="userSpaceOnUse">
<stop stop-color="#2B3582"/>
<stop offset="1" stop-color="#150E42"/>
</linearGradient>
<linearGradient id="paint8_linear_34_215" x1="145.499" y1="50.0321" x2="128.519" y2="50.0321" gradientUnits="userSpaceOnUse">
<stop stop-color="#9CFFFB"/>
<stop offset="1" stop-color="#9BFFFA"/>
</linearGradient>
<linearGradient id="paint9_linear_34_215" x1="121.224" y1="50.0321" x2="104.244" y2="50.0321" gradientUnits="userSpaceOnUse">
<stop stop-color="#9CFFFB"/>
<stop offset="1" stop-color="#9BFFFA"/>
</linearGradient>
<linearGradient id="paint10_linear_34_215" x1="95.2239" y1="42.6544" x2="86.1578" y2="42.6544" gradientUnits="userSpaceOnUse">
<stop stop-color="#9CFFFB"/>
<stop offset="1" stop-color="#9BFFFA"/>
</linearGradient>
<linearGradient id="paint11_linear_34_215" x1="84.2361" y1="42.6544" x2="75.1702" y2="42.6544" gradientUnits="userSpaceOnUse">
<stop stop-color="#9CFFFB"/>
<stop offset="1" stop-color="#9BFFFA"/>
</linearGradient>
<linearGradient id="paint12_linear_34_215" x1="72.9093" y1="42.6544" x2="63.8433" y2="42.6544" gradientUnits="userSpaceOnUse">
<stop stop-color="#9CFFFB"/>
<stop offset="1" stop-color="#9BFFFA"/>
</linearGradient>
<linearGradient id="paint13_linear_34_215" x1="61.9221" y1="42.6544" x2="52.856" y2="42.6544" gradientUnits="userSpaceOnUse">
<stop stop-color="#9CFFFB"/>
<stop offset="1" stop-color="#9BFFFA"/>
</linearGradient>
<linearGradient id="paint14_linear_34_215" x1="119.736" y1="209.713" x2="120.208" y2="143.349" gradientUnits="userSpaceOnUse">
<stop stop-color="#53D8FF"/>
<stop offset="1" stop-color="#3840F7"/>
</linearGradient>
<linearGradient id="paint15_linear_34_215" x1="166.115" y1="128.237" x2="74.0399" y2="128.237" gradientUnits="userSpaceOnUse">
<stop stop-color="#9CFFFB"/>
<stop offset="1" stop-color="#9BFFFA"/>
</linearGradient>
<linearGradient id="paint16_linear_34_215" x1="73.1207" y1="101.563" x2="145.871" y2="144.115" gradientUnits="userSpaceOnUse">
<stop stop-color="#2B3582"/>
<stop offset="1" stop-color="#150E42"/>
</linearGradient>
<linearGradient id="paint17_linear_34_215" x1="154.886" y1="127.786" x2="84.3511" y2="127.786" gradientUnits="userSpaceOnUse">
<stop stop-color="#2B3582"/>
<stop offset="1" stop-color="#150E42"/>
</linearGradient>
<linearGradient id="paint18_linear_34_215" x1="125.831" y1="134.676" x2="37.581" y2="92.8799" gradientUnits="userSpaceOnUse">
<stop stop-color="#2B3582"/>
<stop offset="1" stop-color="#150E42"/>
</linearGradient>
<linearGradient id="paint19_linear_34_215" x1="204.179" y1="90.3443" x2="176.464" y2="103.416" gradientUnits="userSpaceOnUse">
<stop stop-color="#2B3582"/>
<stop offset="1" stop-color="#150E42"/>
</linearGradient>
<linearGradient id="paint20_linear_34_215" x1="185.492" y1="214.904" x2="192.054" y2="214.904" gradientUnits="userSpaceOnUse">
<stop stop-color="#A737D5"/>
<stop offset="1" stop-color="#EF497A"/>
</linearGradient>
<linearGradient id="paint21_linear_34_215" x1="172.934" y1="241.334" x2="182.554" y2="126.836" gradientUnits="userSpaceOnUse">
<stop stop-color="#F9B776"/>
<stop offset="1" stop-color="#F47960"/>
</linearGradient>
<linearGradient id="paint22_linear_34_215" x1="170.021" y1="213.254" x2="181.236" y2="213.254" gradientUnits="userSpaceOnUse">
<stop stop-color="#A737D5"/>
<stop offset="1" stop-color="#EF497A"/>
</linearGradient>
<linearGradient id="paint23_linear_34_215" x1="192.336" y1="195.066" x2="184.675" y2="195.066" gradientUnits="userSpaceOnUse">
<stop stop-color="#F9B776"/>
<stop offset="1" stop-color="#F47960"/>
</linearGradient>
<linearGradient id="paint24_linear_34_215" x1="185.386" y1="183.296" x2="179.868" y2="135.151" gradientUnits="userSpaceOnUse">
<stop stop-color="#A737D5"/>
<stop offset="1" stop-color="#EF497A"/>
</linearGradient>
<linearGradient id="paint25_linear_34_215" x1="183.869" y1="112.669" x2="185.948" y2="194.445" gradientUnits="userSpaceOnUse">
<stop stop-color="#A737D5"/>
<stop offset="1" stop-color="#EF497A"/>
</linearGradient>
<linearGradient id="paint26_linear_34_215" x1="168.634" y1="127.573" x2="195.192" y2="179.902" gradientUnits="userSpaceOnUse">
<stop stop-color="#233894"/>
<stop offset="0.9964" stop-color="#DD397A"/>
</linearGradient>
<linearGradient id="paint27_linear_34_215" x1="185.176" y1="120.842" x2="177.917" y2="104.491" gradientUnits="userSpaceOnUse">
<stop stop-color="#F9B776"/>
<stop offset="1" stop-color="#F47960"/>
</linearGradient>
<linearGradient id="paint28_linear_34_215" x1="187.351" y1="113.984" x2="177.837" y2="116.697" gradientUnits="userSpaceOnUse">
<stop stop-color="#9CFFFB"/>
<stop offset="1" stop-color="#9BFFFA"/>
</linearGradient>
<linearGradient id="paint29_linear_34_215" x1="179.386" y1="110.534" x2="174.624" y2="78.0715" gradientUnits="userSpaceOnUse">
<stop stop-color="#F9B776"/>
<stop offset="1" stop-color="#F47960"/>
</linearGradient>
<linearGradient id="paint30_linear_34_215" x1="199.543" y1="82.4093" x2="174.362" y2="99.7363" gradientUnits="userSpaceOnUse">
<stop stop-color="#2B3582"/>
<stop offset="1" stop-color="#150E42"/>
</linearGradient>
<linearGradient id="paint31_linear_34_215" x1="165.541" y1="113.959" x2="167.564" y2="193.54" gradientUnits="userSpaceOnUse">
<stop stop-color="#A737D5"/>
<stop offset="1" stop-color="#EF497A"/>
</linearGradient>
<linearGradient id="paint32_linear_34_215" x1="160.906" y1="146.676" x2="146.98" y2="146.676" gradientUnits="userSpaceOnUse">
<stop stop-color="#F9B776"/>
<stop offset="1" stop-color="#F47960"/>
</linearGradient>
<linearGradient id="paint33_linear_34_215" x1="197.306" y1="110.727" x2="199.497" y2="196.955" gradientUnits="userSpaceOnUse">
<stop stop-color="#A737D5"/>
<stop offset="1" stop-color="#EF497A"/>
</linearGradient>
<linearGradient id="paint34_linear_34_215" x1="215.772" y1="185.368" x2="131.448" y2="185.368" gradientUnits="userSpaceOnUse">
<stop stop-color="#2B3582"/>
<stop offset="1" stop-color="#150E42"/>
</linearGradient>
<linearGradient id="paint35_linear_34_215" x1="215.772" y1="185.368" x2="131.448" y2="185.368" gradientUnits="userSpaceOnUse">
<stop stop-color="#2B3582"/>
<stop offset="1" stop-color="#150E42"/>
</linearGradient>
<linearGradient id="paint36_linear_34_215" x1="121.285" y1="138.801" x2="244.409" y2="173.293" gradientUnits="userSpaceOnUse">
<stop stop-color="#FDF53F"/>
<stop offset="1" stop-color="#D93C65"/>
</linearGradient>
<linearGradient id="paint37_linear_34_215" x1="213.322" y1="186.431" x2="153.567" y2="77.5092" gradientUnits="userSpaceOnUse">
<stop stop-color="#FDF53F"/>
<stop offset="1" stop-color="#D93C65"/>
</linearGradient>
<linearGradient id="paint38_linear_34_215" x1="191.174" y1="151.158" x2="186.072" y2="141.256" gradientUnits="userSpaceOnUse">
<stop stop-color="#9CFFFB"/>
<stop offset="1" stop-color="#9BFFFA"/>
</linearGradient>
<linearGradient id="paint39_linear_34_215" x1="193.675" y1="145.138" x2="189.315" y2="145.138" gradientUnits="userSpaceOnUse">
<stop stop-color="#53D8FF"/>
<stop offset="1" stop-color="#3840F7"/>
</linearGradient>
<linearGradient id="paint40_linear_34_215" x1="198.325" y1="149.106" x2="178.936" y2="149.106" gradientUnits="userSpaceOnUse">
<stop stop-color="#53D8FF"/>
<stop offset="1" stop-color="#3840F7"/>
</linearGradient>
<linearGradient id="paint41_linear_34_215" x1="194.058" y1="141.88" x2="188.469" y2="141.88" gradientUnits="userSpaceOnUse">
<stop stop-color="#F9B776"/>
<stop offset="1" stop-color="#F47960"/>
</linearGradient>
<linearGradient id="paint42_linear_34_215" x1="43.2884" y1="130.238" x2="45.7173" y2="157.446" gradientUnits="userSpaceOnUse">
<stop stop-color="#FDF53F"/>
<stop offset="1" stop-color="#D93C65"/>
</linearGradient>
<linearGradient id="paint43_linear_34_215" x1="64.7899" y1="165.525" x2="13.6579" y2="240.68" gradientUnits="userSpaceOnUse">
<stop stop-color="#FDF53F"/>
<stop offset="1" stop-color="#D93C65"/>
</linearGradient>
<linearGradient id="paint44_linear_34_215" x1="32.0764" y1="130.297" x2="54.5934" y2="166.522" gradientUnits="userSpaceOnUse">
<stop stop-color="#FDF53F"/>
<stop offset="1" stop-color="#D93C65"/>
</linearGradient>
<linearGradient id="paint45_linear_34_215" x1="73.053" y1="160.727" x2="45.6705" y2="124.873" gradientUnits="userSpaceOnUse">
<stop stop-color="#FDF53F"/>
<stop offset="1" stop-color="#D93C65"/>
</linearGradient>
<linearGradient id="paint46_linear_34_215" x1="80.1889" y1="115.875" x2="58.7074" y2="151.099" gradientUnits="userSpaceOnUse">
<stop stop-color="#FDF53F"/>
<stop offset="1" stop-color="#D93C65"/>
</linearGradient>
<linearGradient id="paint47_linear_34_215" x1="32.9752" y1="126.935" x2="62.2448" y2="149.228" gradientUnits="userSpaceOnUse">
<stop stop-color="#FDF53F"/>
<stop offset="1" stop-color="#D93C65"/>
</linearGradient>
<linearGradient id="paint48_linear_34_215" x1="2.30407" y1="109.716" x2="57.0913" y2="154.317" gradientUnits="userSpaceOnUse">
<stop stop-color="#FDF53F"/>
<stop offset="1" stop-color="#D93C65"/>
</linearGradient>
<linearGradient id="paint49_linear_34_215" x1="40.0207" y1="149.388" x2="39.9645" y2="160.323" gradientUnits="userSpaceOnUse">
<stop stop-color="#FDF53F"/>
<stop offset="1" stop-color="#D93C65"/>
</linearGradient>
<linearGradient id="paint50_linear_34_215" x1="41.6102" y1="149.388" x2="41.554" y2="160.323" gradientUnits="userSpaceOnUse">
<stop stop-color="#FDF53F"/>
<stop offset="1" stop-color="#D93C65"/>
</linearGradient>
<linearGradient id="paint51_linear_34_215" x1="43.2001" y1="149.388" x2="43.1439" y2="160.323" gradientUnits="userSpaceOnUse">
<stop stop-color="#FDF53F"/>
<stop offset="1" stop-color="#D93C65"/>
</linearGradient>
<linearGradient id="paint52_linear_34_215" x1="44.7896" y1="149.388" x2="44.7333" y2="160.323" gradientUnits="userSpaceOnUse">
<stop stop-color="#FDF53F"/>
<stop offset="1" stop-color="#D93C65"/>
</linearGradient>
<linearGradient id="paint53_linear_34_215" x1="46.3795" y1="149.388" x2="46.3233" y2="160.323" gradientUnits="userSpaceOnUse">
<stop stop-color="#FDF53F"/>
<stop offset="1" stop-color="#D93C65"/>
</linearGradient>
<linearGradient id="paint54_linear_34_215" x1="47.9694" y1="149.388" x2="47.9132" y2="160.323" gradientUnits="userSpaceOnUse">
<stop stop-color="#FDF53F"/>
<stop offset="1" stop-color="#D93C65"/>
</linearGradient>
<linearGradient id="paint55_linear_34_215" x1="49.5591" y1="149.388" x2="49.5029" y2="160.323" gradientUnits="userSpaceOnUse">
<stop stop-color="#FDF53F"/>
<stop offset="1" stop-color="#D93C65"/>
</linearGradient>
<linearGradient id="paint56_linear_34_215" x1="51.1488" y1="149.388" x2="51.0926" y2="160.323" gradientUnits="userSpaceOnUse">
<stop stop-color="#FDF53F"/>
<stop offset="1" stop-color="#D93C65"/>
</linearGradient>
<linearGradient id="paint57_linear_34_215" x1="47.3706" y1="182.423" x2="47.0637" y2="242.101" gradientUnits="userSpaceOnUse">
<stop stop-color="#FDF53F"/>
<stop offset="1" stop-color="#D93C65"/>
</linearGradient>
</defs>
</svg>
