<svg width="67" height="70" viewBox="0 0 67 70" fill="none" xmlns="http://www.w3.org/2000/svg">
<g clip-path="url(#clip0_1_86)">
<path d="M66.0278 22.689C66.0278 22.689 66.0278 22.689 65.9026 22.5559L51.007 9.24259C50.8818 9.10945 50.6314 8.97632 50.3811 8.97632L44.1224 8.17752L45.1238 6.8462C45.4993 6.31367 45.4993 5.38174 44.9986 4.98234L41.4938 2.31969C41.4938 2.31969 41.1183 1.92029 40.7427 1.92029H26.9737H26.8485H26.7233C26.5982 1.92029 26.473 2.05342 26.3478 2.05342L22.3423 4.84921C21.7164 5.2486 21.5912 6.0474 21.9667 6.71306C21.9667 6.71306 21.9667 6.8462 22.0919 6.8462L23.0933 8.17752L16.8346 8.97632C16.5843 8.97632 16.3339 9.10945 16.2088 9.24259L1.4383 22.5559C0.937606 23.0884 0.812432 23.8872 1.31313 24.4197C1.31313 24.4197 1.31313 24.4197 1.4383 24.5528L12.8291 36.5348V66.6228C12.8291 67.4216 13.3298 67.9541 14.0808 67.9541H53.3853C54.1363 67.9541 54.637 67.4216 54.637 66.6228V36.5348L66.0278 24.5528C66.5285 24.0203 66.5285 23.2215 66.0278 22.689ZM42.2448 6.31367L36.3617 14.3016L35.4855 12.0384C35.4855 12.0384 35.6106 12.0384 35.6106 11.9052L40.7427 5.2486L42.2448 6.31367ZM26.7233 4.98234L31.9806 11.9052L30.854 14.3016L24.8457 6.31367L26.7233 4.98234ZM32.4813 65.2914H32.3561H15.2074V28.0143C15.2074 27.2155 14.7067 26.683 13.9556 26.683C13.2046 26.683 12.7039 27.2155 12.7039 28.0143V32.6739L4.06694 23.6209L17.4605 11.5058L24.8457 10.5739L30.2282 17.7631C30.6037 18.2956 31.4799 18.4287 31.9806 18.0293C32.1058 17.8962 32.231 17.7631 32.3561 17.6299L32.4813 17.4968V65.2914ZM33.8582 9.77512H33.6079L29.6023 4.58294H37.9889L33.9834 9.77512H33.8582ZM54.5118 32.8069V28.1473C54.5118 27.3485 54.0111 26.8159 53.2601 26.8159C52.509 26.8159 52.0083 27.3485 52.0083 28.1473V65.4244H34.8596V57.8358H35.861C36.612 57.8358 37.1127 57.3033 37.1127 56.5045C37.1127 55.7057 36.612 55.1732 35.861 55.1732H34.8596V47.1852H35.861C36.612 47.1852 37.1127 46.6527 37.1127 45.8539C37.1127 45.0551 36.612 44.5226 35.861 44.5226H34.8596V36.5346H35.861C36.612 36.5346 37.1127 36.0021 37.1127 35.2033C37.1127 34.4045 36.612 33.872 35.861 33.872H34.8596V25.884H35.861C36.612 25.884 37.1127 25.3515 37.1127 24.5527C37.1127 23.7539 36.612 23.2213 35.861 23.2213H34.8596V17.4966C34.9848 17.896 35.3603 18.2954 35.861 18.2954H36.1113C36.4868 18.2954 36.8624 18.1623 37.1127 17.7629L42.37 10.5737L49.7552 11.6388L63.1488 23.7539L54.5118 32.8069Z" fill="#38106A"/>
<path d="M66.0278 22.689C66.0278 22.689 66.0278 22.689 65.9026 22.5559L51.007 9.24259C50.8818 9.10945 50.6314 8.97632 50.3811 8.97632L44.1224 8.17752L45.1238 6.8462C45.4993 6.31367 45.4993 5.38174 44.9986 4.98234L41.4938 2.31969C41.4938 2.31969 41.1183 1.92029 40.7427 1.92029H26.9737H26.8485H26.7233C26.5982 1.92029 26.473 2.05342 26.3478 2.05342L22.3423 4.84921C21.7164 5.2486 21.5912 6.0474 21.9667 6.71306C21.9667 6.71306 21.9667 6.8462 22.0919 6.8462L23.0933 8.17752L16.8346 8.97632C16.5843 8.97632 16.3339 9.10945 16.2088 9.24259L1.4383 22.5559C0.937606 23.0884 0.812432 23.8872 1.31313 24.4197C1.31313 24.4197 1.31313 24.4197 1.4383 24.5528L12.8291 36.5348V66.6228C12.8291 67.4216 13.3298 67.9541 14.0808 67.9541H53.3853C54.1363 67.9541 54.637 67.4216 54.637 66.6228V36.5348L66.0278 24.5528C66.5285 24.0203 66.5285 23.2215 66.0278 22.689ZM42.2448 6.31367L36.3617 14.3016L35.4855 12.0384C35.4855 12.0384 35.6106 12.0384 35.6106 11.9052L40.7427 5.2486L42.2448 6.31367ZM26.7233 4.98234L31.9806 11.9052L30.854 14.3016L24.8457 6.31367L26.7233 4.98234ZM32.4813 65.2914H32.3561H15.2074V28.0143C15.2074 27.2155 14.7067 26.683 13.9556 26.683C13.2046 26.683 12.7039 27.2155 12.7039 28.0143V32.6739L4.06694 23.6209L17.4605 11.5058L24.8457 10.5739L30.2282 17.7631C30.6037 18.2956 31.4799 18.4287 31.9806 18.0293C32.1058 17.8962 32.231 17.7631 32.3561 17.6299L32.4813 17.4968V65.2914ZM33.8582 9.77512H33.6079L29.6023 4.58294H37.9889L33.9834 9.77512H33.8582ZM54.5118 32.8069V28.1473C54.5118 27.3485 54.0111 26.8159 53.2601 26.8159C52.509 26.8159 52.0083 27.3485 52.0083 28.1473V65.4244H34.8596V57.8358H35.861C36.612 57.8358 37.1127 57.3033 37.1127 56.5045C37.1127 55.7057 36.612 55.1732 35.861 55.1732H34.8596V47.1852H35.861C36.612 47.1852 37.1127 46.6527 37.1127 45.8539C37.1127 45.0551 36.612 44.5226 35.861 44.5226H34.8596V36.5346H35.861C36.612 36.5346 37.1127 36.0021 37.1127 35.2033C37.1127 34.4045 36.612 33.872 35.861 33.872H34.8596V25.884H35.861C36.612 25.884 37.1127 25.3515 37.1127 24.5527C37.1127 23.7539 36.612 23.2213 35.861 23.2213H34.8596V17.4966C34.9848 17.896 35.3603 18.2954 35.861 18.2954H36.1113C36.4868 18.2954 36.8624 18.1623 37.1127 17.7629L42.37 10.5737L49.7552 11.6388L63.1488 23.7539L54.5118 32.8069Z" fill="#6D5FBF"/>
</g>
<defs>
<clipPath id="clip0_1_86">
<rect width="65.4088" height="69.568" fill="white" transform="translate(0.994507 0.15332)"/>
</clipPath>
</defs>
</svg>
