<svg width="67" height="72" viewBox="0 0 67 72" fill="none" xmlns="http://www.w3.org/2000/svg">
<g clip-path="url(#clip0_1_66)">
<path d="M66.4854 21.0764C66.4701 21.0592 66.4543 21.0423 66.4382 21.026L52.7501 8.02012C52.6252 7.89841 52.4795 7.804 52.3207 7.74192L42.419 3.9584C41.7435 3.6962 40.9971 4.06916 40.7519 4.79126C40.7076 4.9215 40.6819 5.05799 40.6754 5.19639C40.6754 5.50241 40.246 12.5548 33.6492 12.6661C27.0133 12.5548 26.597 5.50241 26.584 5.19639C26.5456 4.42926 25.9327 3.84069 25.2152 3.88172C25.0919 3.88885 24.97 3.91458 24.8534 3.9584L14.9647 7.78365C14.806 7.84573 14.6602 7.94014 14.5353 8.06185L0.938291 21.026C0.417343 21.5551 0.3962 22.4356 0.891125 22.9925C0.906413 23.0097 0.92219 23.0266 0.938291 23.0429L11.7639 34.7413V66.7343C11.7639 67.5025 12.3465 68.1253 13.065 68.1253H54.3115C55.03 68.1253 55.6126 67.5025 55.6126 66.7343V34.7413L66.4382 23.0429C66.9591 22.5138 66.9803 21.6335 66.4854 21.0764ZM55.5736 30.7769V24.3227C55.5736 23.5545 54.991 22.9317 54.2724 22.9317C53.5539 22.9317 52.9713 23.5545 52.9713 24.3227V65.2737H14.3141V24.3227C14.3141 23.5545 13.7315 22.9317 13.013 22.9317C12.2944 22.9317 11.7118 23.5545 11.7118 24.3227V30.7908L3.70974 22.1249L16.0967 10.2735L24.2419 7.12988C25.2509 12.688 30.2836 16.3194 35.4827 15.2406C39.3222 14.4439 42.3243 11.2346 43.0695 7.12988L51.2147 10.2735L63.5627 22.1249L55.5736 30.7769Z" fill="#38106A"/>
<path d="M66.4854 21.0764C66.4701 21.0592 66.4543 21.0423 66.4382 21.026L52.7501 8.02012C52.6252 7.89841 52.4795 7.804 52.3207 7.74192L42.419 3.9584C41.7435 3.6962 40.9971 4.06916 40.7519 4.79126C40.7076 4.9215 40.6819 5.05799 40.6754 5.19639C40.6754 5.50241 40.246 12.5548 33.6492 12.6661C27.0133 12.5548 26.597 5.50241 26.584 5.19639C26.5456 4.42926 25.9327 3.84069 25.2152 3.88172C25.0919 3.88885 24.97 3.91458 24.8534 3.9584L14.9647 7.78365C14.806 7.84573 14.6602 7.94014 14.5353 8.06185L0.938291 21.026C0.417343 21.5551 0.3962 22.4356 0.891125 22.9925C0.906413 23.0097 0.92219 23.0266 0.938291 23.0429L11.7639 34.7413V66.7343C11.7639 67.5025 12.3465 68.1253 13.065 68.1253H54.3115C55.03 68.1253 55.6126 67.5025 55.6126 66.7343V34.7413L66.4382 23.0429C66.9591 22.5138 66.9803 21.6335 66.4854 21.0764ZM55.5736 30.7769V24.3227C55.5736 23.5545 54.991 22.9317 54.2724 22.9317C53.5539 22.9317 52.9713 23.5545 52.9713 24.3227V65.2737H14.3141V24.3227C14.3141 23.5545 13.7315 22.9317 13.013 22.9317C12.2944 22.9317 11.7118 23.5545 11.7118 24.3227V30.7908L3.70974 22.1249L16.0967 10.2735L24.2419 7.12988C25.2509 12.688 30.2836 16.3194 35.4827 15.2406C39.3222 14.4439 42.3243 11.2346 43.0695 7.12988L51.2147 10.2735L63.5627 22.1249L55.5736 30.7769Z" fill="#6D5FBF"/>
</g>
<defs>
<clipPath id="clip0_1_66">
<rect width="66.3099" height="70.8889" fill="white" transform="translate(0.533203 0.55542)"/>
</clipPath>
</defs>
</svg>
