<svg width="231" height="233" viewBox="0 0 231 233" fill="none" xmlns="http://www.w3.org/2000/svg">
<path d="M56.3341 13.2477C48.444 24.1737 57.3687 42.1064 45.7522 50.2614C34.447 58.2 20.7949 44.8525 10.1458 51.676C-5.65123 61.8032 -3.28756 108.903 19.3397 138.385C26.1447 147.256 31.8731 150.734 34.3208 160.712C39.5781 182.131 20.1725 194.63 23.7306 205.231C31.7301 229.106 158.477 250.383 210.183 179.427C234.333 146.291 238.404 98.1179 217.535 61.279C179.817 -5.28413 74.0237 -11.2672 56.3341 13.2477Z" fill="#F4F7FA"/>
<path d="M171.235 14.1716L171.201 14.08L171.185 14.0135L171.151 13.897C171.126 13.8221 171.109 13.7555 171.092 13.6889C171.058 13.5558 171.025 13.4143 170.991 13.2812C170.932 13.0149 170.882 12.7486 170.848 12.4823C170.772 11.9497 170.73 11.4088 170.739 10.8513C170.747 9.74456 170.949 8.57956 171.445 7.46449C171.698 6.91528 172.017 6.37438 172.404 5.90006C172.791 5.42574 173.229 4.99303 173.7 4.64353C174.642 3.92788 175.685 3.4702 176.686 3.17895C176.938 3.11238 177.191 3.04581 177.434 2.98756C177.687 2.92931 177.931 2.8877 178.175 2.8461L178.36 2.81281C178.419 2.80449 178.486 2.79617 178.545 2.78785L178.915 2.74624L179.285 2.70463C179.42 2.69631 179.571 2.68799 179.706 2.67967C179.849 2.67135 179.992 2.66302 180.135 2.66302L180.572 2.67967C180.858 2.68799 181.152 2.73792 181.447 2.77953C181.523 2.79617 181.59 2.79617 181.666 2.82113L181.884 2.87938L182.313 2.99588C182.456 3.04581 182.599 3.09574 182.734 3.15399C182.877 3.21224 183.011 3.25385 183.146 3.32874C184.231 3.84467 185.148 4.62688 185.796 5.51728C186.452 6.40767 186.898 7.38128 187.184 8.3632C187.461 9.34513 187.596 10.3437 187.604 11.334C187.613 12.3242 187.486 13.3061 187.234 14.2714C186.982 15.2284 186.586 16.1604 186.056 17.0175L185.855 17.3337L185.627 17.6416C185.552 17.7415 185.484 17.8496 185.392 17.9412L185.14 18.2324L185.013 18.3739C184.971 18.4238 184.921 18.4654 184.879 18.507L184.601 18.7733C184.5 18.8732 184.433 18.9314 184.349 19.0063L184.113 19.2227C183.482 19.7885 182.852 20.3544 182.313 20.9119L181.926 21.3363L181.758 21.5527C181.708 21.6276 181.64 21.6941 181.59 21.769C181.497 21.9105 181.388 22.052 181.312 22.2017L181.186 22.4181L181.085 22.6511C180.816 23.2669 180.69 24.0075 180.622 24.8063C180.555 25.6052 180.547 26.4457 180.538 27.2861V27.2945C180.53 27.8353 180.084 28.2764 179.537 28.2681C179.016 28.2597 178.587 27.852 178.553 27.3444C178.503 26.479 178.452 25.6135 178.461 24.7065L178.486 24.0158C178.511 23.7828 178.528 23.5415 178.553 23.3085L178.612 22.9423C178.637 22.8175 178.646 22.701 178.679 22.5762C178.747 22.3266 178.797 22.0852 178.89 21.8439L179.024 21.4778L179.184 21.1283C179.285 20.887 179.428 20.6789 179.554 20.4542C179.613 20.3377 179.689 20.2462 179.756 20.1463L179.966 19.8385C180.109 19.6471 180.261 19.464 180.404 19.2809C181.001 18.5653 181.615 17.9412 182.221 17.3171L182.448 17.0841C182.524 17.0092 182.608 16.926 182.658 16.8677L182.826 16.6763C182.852 16.643 182.885 16.6097 182.91 16.5765L182.986 16.4683L183.146 16.2602C183.196 16.1937 183.238 16.1105 183.289 16.0439L183.432 15.8275L183.558 15.5945C183.886 14.9787 184.113 14.2964 184.256 13.5891C184.517 12.1827 184.408 10.6766 183.937 9.38674C183.701 8.74599 183.365 8.16349 182.969 7.70581C182.927 7.64756 182.868 7.58931 182.818 7.53938L182.667 7.38127L182.498 7.24813L182.414 7.18156C182.389 7.1566 182.355 7.13995 182.33 7.12331C182.271 7.0817 182.212 7.04842 182.162 7.00681C182.103 6.9652 182.044 6.94024 181.985 6.90695C181.867 6.83206 181.741 6.79045 181.623 6.74053C181.565 6.70724 181.497 6.69892 181.438 6.68228C181.371 6.66563 181.312 6.64067 181.253 6.62403C181.186 6.6157 181.119 6.60738 181.06 6.59074L180.959 6.5741C180.925 6.56578 180.892 6.56578 180.858 6.56578C180.723 6.55745 180.589 6.54081 180.446 6.54913L180.236 6.55745C180.16 6.56578 180.093 6.5741 180.017 6.58242L179.798 6.60738L179.529 6.65731L179.26 6.70724C179.218 6.71556 179.167 6.72388 179.125 6.7322L178.999 6.76549C178.831 6.81542 178.646 6.8487 178.486 6.89863L177.998 7.06506C177.367 7.29806 176.829 7.61427 176.434 7.96378C176.03 8.3216 175.777 8.72103 175.609 9.1787C175.449 9.6447 175.382 10.1939 175.424 10.7931C175.441 11.0926 175.491 11.4005 175.559 11.7084C175.592 11.8582 175.634 12.0163 175.676 12.1578C175.702 12.2327 175.719 12.2992 175.744 12.3741C175.752 12.4074 175.769 12.4407 175.777 12.4657L175.794 12.5073L175.803 12.5156C175.803 12.5156 175.803 12.5239 175.803 12.5156L175.794 12.499C176.257 13.7305 175.626 15.1119 174.381 15.5696C173.086 16.0356 171.698 15.4031 171.235 14.1716Z" fill="#D8DEE8"/>
<path d="M224.498 39.4269C219.896 37.7875 182.675 26.9114 179.697 26.0377V25.9794C179.697 25.9794 179.664 25.9878 179.605 26.0044C179.546 25.9878 179.512 25.9794 179.512 25.9794V26.0377C176.535 26.9114 139.313 37.7875 134.712 39.4269C129.917 41.1328 133.442 47.0493 133.442 47.0493C133.442 47.0493 133.602 46.9328 133.913 46.7164V47.0493C164.397 44.5196 195.015 44.5029 225.776 47.0493C225.768 47.041 229.292 41.1328 224.498 39.4269ZM139.481 43.2381C147.708 38.4949 163.269 31.0139 179.596 30.9889C195.932 31.0139 211.493 38.5032 219.711 43.2381H139.481Z" fill="#D8DEE8"/>
<path d="M148.246 31.896L158.652 29.6409C158.652 29.6409 168.947 39.0441 180.051 38.0954C191.154 37.1468 202.728 29.9404 204.856 30.2899C205.958 30.473 207.372 30.1734 208.457 30.9224C210.45 32.3037 210.181 35.6406 210.105 36.9138C209.231 51.9423 213.176 54.68 209.432 65.6227C206.455 74.3436 201.273 80.4598 197.303 84.2128C203.536 88.4318 211.073 94.8476 217.222 104.292C236.737 134.275 225.473 168.908 223.488 174.708C217.037 173.352 207.245 171.871 195.41 172.478C179.731 173.285 173.574 177.088 162.092 177.321C153.167 177.496 140.339 175.532 124.492 165.272C124.786 152.548 127.394 122.625 149.542 98.1928C154.807 92.3844 160.334 87.816 165.574 84.2128C155.615 77.1562 152.267 69.85 150.955 65.6227C150.45 64 149.895 61.7283 149.18 52.1087C148.558 43.7041 148.33 36.7474 148.246 31.896Z" fill="#D8DEE8"/>
<path opacity="0.3" d="M217.23 104.309C211.081 94.864 203.545 88.4482 197.312 84.2292C201.273 80.4763 206.463 74.36 209.441 65.6392C210.821 61.6033 211.157 58.6741 211.065 55.8449C205.37 60.9708 198.329 64.4575 190.65 65.7141C188.9 65.997 171.749 68.5101 158.416 56.7602C154.093 52.9573 150.795 48.1975 148.608 42.8801C148.743 45.7094 148.928 48.8049 149.18 52.1252C149.895 61.7531 150.45 64.0165 150.955 65.6392C152.276 69.8581 155.623 77.1727 165.574 84.2292C161.621 86.9504 157.499 90.2207 153.453 94.1567C160.233 95.2135 164.817 97.6767 168.031 100.398C181.094 111.449 178.335 132.394 190.086 135.639C198.254 137.894 203.494 128.865 210.442 130.605C216.524 132.119 222.42 141.514 224.473 171.679C227.652 161.111 234.533 130.879 217.23 104.309Z" fill="#D8DEE8"/>
<path opacity="0.5" d="M162.74 81.4751L162.866 85.5442C162.866 85.5442 188.319 90.2458 199.65 86.1351L199.591 82.5236C199.591 82.5153 167.004 83.8633 162.74 81.4751Z" fill="#D8DEE8"/>
<path d="M151.334 14.1716L151.3 14.08L151.283 14.0135L151.249 13.897C151.224 13.8221 151.207 13.7555 151.191 13.6889C151.157 13.5558 151.123 13.4143 151.09 13.2812C151.031 13.0149 150.98 12.7486 150.947 12.4823C150.871 11.9497 150.829 11.4088 150.837 10.8513C150.846 9.74456 151.048 8.57956 151.544 7.46449C151.796 6.91528 152.116 6.37438 152.503 5.90006C152.89 5.42574 153.327 4.99303 153.798 4.64353C154.74 3.92788 155.783 3.4702 156.784 3.17895C157.037 3.11238 157.289 3.04581 157.533 2.98756C157.785 2.92931 158.029 2.8877 158.273 2.8461L158.458 2.81281C158.517 2.80449 158.584 2.79617 158.643 2.78785L159.013 2.74624L159.383 2.70463C159.518 2.69631 159.669 2.68799 159.804 2.67967C159.947 2.67135 160.09 2.66302 160.233 2.66302L160.67 2.67967C160.956 2.68799 161.251 2.73792 161.545 2.77953C161.621 2.79617 161.688 2.79617 161.764 2.82113L161.983 2.87938L162.412 2.99588C162.555 3.04581 162.698 3.09574 162.832 3.15399C162.975 3.21224 163.11 3.25385 163.244 3.32874C164.329 3.84467 165.246 4.62688 165.894 5.51728C166.55 6.40767 166.996 7.38128 167.282 8.3632C167.56 9.34513 167.694 10.3437 167.703 11.334C167.711 12.3242 167.585 13.3061 167.332 14.2714C167.08 15.2284 166.685 16.1604 166.155 17.0175L165.953 17.3337L165.726 17.6416C165.65 17.7415 165.583 17.8496 165.49 17.9412L165.238 18.2324L165.112 18.3739C165.07 18.4238 165.019 18.4654 164.977 18.507L164.7 18.7733C164.599 18.8732 164.531 18.9314 164.447 19.0063L164.212 19.2227C163.581 19.7885 162.95 20.3544 162.412 20.9119L162.025 21.3363L161.856 21.5527C161.806 21.6276 161.739 21.6941 161.688 21.769C161.596 21.9105 161.486 22.052 161.411 22.2017L161.284 22.4181L161.184 22.6511C160.914 23.2669 160.788 24.0075 160.721 24.8063C160.654 25.6052 160.645 26.4457 160.637 27.2861V27.2945C160.628 27.8353 160.183 28.2764 159.636 28.2681C159.114 28.2597 158.685 27.852 158.652 27.3444C158.601 26.479 158.551 25.6135 158.559 24.7065L158.584 24.0158C158.61 23.7828 158.626 23.5415 158.652 23.3085L158.711 22.9423C158.736 22.8175 158.744 22.701 158.778 22.5762C158.845 22.3266 158.896 22.0852 158.988 21.8439L159.123 21.4778L159.282 21.1283C159.383 20.887 159.526 20.6789 159.653 20.4542C159.711 20.3377 159.787 20.2462 159.854 20.1463L160.065 19.8385C160.208 19.6471 160.359 19.464 160.502 19.2809C161.099 18.5653 161.713 17.9412 162.319 17.3171L162.546 17.0841C162.622 17.0092 162.706 16.926 162.756 16.8677L162.925 16.6763C162.95 16.643 162.984 16.6097 163.009 16.5765L163.085 16.4683L163.244 16.2602C163.295 16.1937 163.337 16.1105 163.387 16.0439L163.53 15.8275L163.657 15.5945C163.985 14.9787 164.212 14.2964 164.355 13.5891C164.615 12.1827 164.506 10.6766 164.035 9.38674C163.8 8.74599 163.463 8.16349 163.068 7.70581C163.026 7.64756 162.967 7.58931 162.916 7.53938L162.765 7.38127L162.597 7.24813L162.513 7.18156C162.487 7.1566 162.454 7.13995 162.428 7.12331C162.37 7.0817 162.311 7.04842 162.26 7.00681C162.201 6.9652 162.142 6.94024 162.084 6.90695C161.966 6.83206 161.84 6.79045 161.722 6.74053C161.663 6.70724 161.596 6.69892 161.537 6.68228C161.47 6.66563 161.411 6.64067 161.352 6.62403C161.284 6.6157 161.217 6.60738 161.158 6.59074L161.057 6.5741C161.024 6.56578 160.99 6.56578 160.956 6.56578C160.822 6.55745 160.687 6.54081 160.544 6.54913L160.334 6.55745C160.258 6.56578 160.191 6.5741 160.115 6.58242L159.897 6.60738L159.627 6.65731L159.358 6.70724C159.316 6.71556 159.266 6.72388 159.224 6.7322L159.097 6.76549C158.929 6.81542 158.744 6.8487 158.584 6.89863L158.096 7.06506C157.466 7.29806 156.927 7.61427 156.532 7.96378C156.128 8.3216 155.876 8.72103 155.708 9.1787C155.548 9.6447 155.48 10.1939 155.523 10.7931C155.539 11.0926 155.59 11.4005 155.657 11.7084C155.691 11.8582 155.733 12.0163 155.775 12.1578C155.8 12.2327 155.817 12.2992 155.842 12.3741C155.851 12.4074 155.867 12.4407 155.876 12.4657L155.893 12.5073L155.901 12.5156C155.901 12.5156 155.901 12.5239 155.901 12.5156L155.893 12.499C156.355 13.7305 155.724 15.1119 154.479 15.5696C153.184 16.0356 151.796 15.4031 151.334 14.1716Z" fill="url(#paint0_linear_34_296)"/>
<path d="M204.596 39.4269C199.995 37.7875 162.773 26.9114 159.796 26.0377V25.9794C159.796 25.9794 159.762 25.9878 159.703 26.0044C159.644 25.9878 159.61 25.9794 159.61 25.9794V26.0377C156.633 26.9114 119.411 37.7875 114.81 39.4269C110.015 41.1328 113.54 47.0493 113.54 47.0493C113.54 47.0493 113.7 46.9328 114.011 46.7164V47.0493C144.495 44.5196 175.113 44.5029 205.874 47.0493C205.866 47.041 209.39 41.1328 204.596 39.4269ZM119.58 43.2381C127.806 38.4949 143.368 31.0139 159.695 30.9889C176.03 31.0139 191.591 38.5032 199.81 43.2381H119.58Z" fill="url(#paint1_linear_34_296)"/>
<path d="M128.344 31.896L138.75 29.6409C138.75 29.6409 149.045 39.0441 160.149 38.0954C171.252 37.1468 182.827 29.9404 184.955 30.2899C186.057 30.473 187.47 30.1734 188.555 30.9224C190.548 32.3037 190.279 35.6406 190.204 36.9138C189.329 51.9423 193.274 54.68 189.531 65.6227C186.553 74.3436 181.371 80.4598 177.401 84.2128C183.634 88.4318 191.171 94.8476 197.32 104.292C216.835 134.275 205.572 168.908 203.586 174.708C197.135 173.352 187.344 171.871 175.508 172.478C159.829 173.285 153.672 177.088 142.19 177.321C133.265 177.496 120.438 175.532 104.59 165.272C104.884 152.548 107.492 122.625 129.64 98.1928C134.906 92.3844 140.432 87.816 145.672 84.2128C135.713 77.1562 132.365 69.85 131.053 65.6227C130.548 64 129.993 61.7283 129.278 52.1087C128.656 43.7041 128.429 36.7474 128.344 31.896Z" fill="url(#paint2_linear_34_296)"/>
<path opacity="0.3" d="M197.328 104.309C191.179 94.864 183.643 88.4482 177.41 84.2292C181.371 80.4763 186.561 74.36 189.539 65.6392C190.919 61.6033 191.255 58.6741 191.163 55.8449C185.468 60.9708 178.427 64.4575 170.748 65.7141C168.998 65.997 151.847 68.5101 138.514 56.7602C134.191 52.9573 130.893 48.1975 128.706 42.8801C128.841 45.7094 129.026 48.8049 129.278 52.1252C129.993 61.7531 130.548 64.0165 131.053 65.6392C132.374 69.8581 135.722 77.1727 145.673 84.2292C141.719 86.9504 137.597 90.2207 133.551 94.1567C140.331 95.2135 144.915 97.6767 148.129 100.398C161.192 111.449 158.433 132.394 170.184 135.639C178.352 137.894 183.592 128.865 190.54 130.605C196.622 132.119 202.518 141.514 204.571 171.679C207.75 161.111 214.631 130.879 197.328 104.309Z" fill="url(#paint3_linear_34_296)"/>
<path d="M142.838 81.4751L142.964 85.5442C142.964 85.5442 168.417 90.2458 179.748 86.1351L179.689 82.5236C179.689 82.5153 147.102 83.8633 142.838 81.4751Z" fill="url(#paint4_linear_34_296)"/>
<path d="M13.3155 60.006L46.4321 49.4377V211.506L12.8192 197.518C10.5565 196.577 9.08447 194.389 9.08447 191.959V65.7394C9.09288 63.1265 10.8004 60.8048 13.3155 60.006Z" fill="url(#paint5_linear_34_296)"/>
<path d="M158.315 53.2323L48.308 49.4461C43.648 49.288 39.8459 52.8163 39.8459 57.3265V203.85C39.8459 208.36 43.6396 211.781 48.308 211.489L158.315 204.541C162.353 204.283 165.617 200.696 165.617 196.519V61.0462C165.617 56.8688 162.361 53.3738 158.315 53.2323Z" fill="url(#paint6_linear_34_296)"/>
<path d="M48.3081 209.983C44.5144 210.216 41.4189 207.428 41.4189 203.759V57.3681C41.4189 53.6984 44.5144 50.8192 48.3081 50.944L158.315 54.6304C161.604 54.7385 164.271 57.5928 164.271 60.9963V196.586C164.271 199.981 161.604 202.918 158.315 203.118L48.3081 209.983Z" fill="url(#paint7_linear_34_296)"/>
<path d="M156.818 57.4015L50.0155 54.0146C48.0387 53.9481 46.4321 55.4543 46.4321 57.3682V72.1471C46.4321 74.061 48.0387 75.6421 50.0155 75.6837L156.818 77.6725C158.542 77.7058 159.939 76.2828 159.939 74.502V60.73C159.947 58.9493 158.551 57.4597 156.818 57.4015Z" fill="url(#paint8_linear_34_296)"/>
<path opacity="0.5" d="M131.633 63.9005C131.633 65.5565 130.313 66.8713 128.672 66.8297C127.032 66.7881 125.703 65.4067 125.703 63.7424C125.703 62.0781 127.032 60.7633 128.672 60.8133C130.313 60.8549 131.633 62.2362 131.633 63.9005Z" fill="white"/>
<path opacity="0.5" d="M140.028 64.1252C140.028 65.7729 138.716 67.0793 137.101 67.0377C135.477 66.9961 134.165 65.6231 134.165 63.9671C134.165 62.3111 135.486 61.0047 137.101 61.0546C138.716 61.1045 140.028 62.4776 140.028 64.1252Z" fill="white"/>
<path opacity="0.5" d="M152.023 66.3471C152.023 69.0349 149.903 71.1652 147.287 71.107C144.663 71.0487 142.526 68.8103 142.526 66.1058C142.526 63.4013 144.663 61.271 147.287 61.3542C149.903 61.4291 152.023 63.6676 152.023 66.3471Z" fill="white"/>
<path d="M119.529 60.5469L104.388 60.1059C102.941 60.0643 101.772 61.2043 101.772 62.6439V70.075C101.772 71.5229 102.941 72.7129 104.388 72.7462L119.529 73.0624C120.942 73.0957 122.086 71.9557 122.086 70.5327V63.1932C122.086 61.7785 120.942 60.5885 119.529 60.5469Z" fill="url(#paint9_linear_34_296)"/>
<path opacity="0.5" d="M96.0524 63.1267L86.0679 62.8604V59.5734L96.0524 59.8646V63.1267Z" fill="white"/>
<path opacity="0.5" d="M96.0524 67.8534L86.0679 67.612V64.3251L96.0524 64.583V67.8534Z" fill="white"/>
<path opacity="0.5" d="M96.0524 72.5715L86.0679 72.3635V69.0765L96.0524 69.3095V72.5715Z" fill="white"/>
<path d="M159.947 189.862L46.4321 195.97V193.249L159.947 187.332V189.862Z" fill="url(#paint10_linear_34_296)"/>
<path opacity="0.3" d="M129.716 175.532C120.656 156.177 105.532 157.483 95.8169 137.295C85.7314 116.342 97.0366 104.9 88.953 81.4586C84.6463 68.9682 76.7982 58.6662 67.394 50.1035L48.308 49.4461C43.648 49.288 39.8459 52.8163 39.8459 57.3265V203.85C39.8459 208.36 43.6396 211.781 48.308 211.489L134.224 206.064C135.158 196.611 134.527 185.801 129.716 175.532Z" fill="white"/>
<path d="M148.171 132.544C148.171 155.894 129.539 175.64 105.928 176.689C81.6014 177.762 61.3293 158.681 61.3293 134.042C61.3293 109.402 81.6014 89.6218 105.928 89.8631C129.531 90.0794 148.171 109.194 148.171 132.544Z" fill="#BFC8D6"/>
<path d="M149.458 132.544C149.458 155.894 130.826 175.64 107.215 176.689C82.8882 177.762 62.6162 158.681 62.6162 134.042C62.6162 109.402 82.8882 89.6218 107.215 89.8631C130.826 90.0794 149.458 109.194 149.458 132.544Z" fill="#D8DEE8"/>
<path d="M141.349 132.677C141.349 151.541 126.242 167.427 107.206 168.168C87.7081 168.925 71.5493 153.58 71.5493 133.875C71.5493 114.17 87.7081 98.2677 107.206 98.3592C126.25 98.4508 141.349 113.812 141.349 132.677Z" fill="#BFC8D6"/>
<path d="M139.187 132.718C139.187 150.393 125.03 165.247 107.206 165.921C88.9783 166.603 73.8962 152.249 73.8962 133.842C73.8962 115.435 88.9783 100.564 107.206 100.623C125.03 100.673 139.187 115.044 139.187 132.718Z" fill="url(#paint11_linear_34_296)"/>
<path d="M146.867 131.687C146.867 140.849 146.152 148.296 139.112 148.488C132.012 148.679 126.208 141.315 126.208 132.028C126.208 122.741 132.012 115.177 139.112 115.135C146.152 115.094 146.867 122.516 146.867 131.687Z" fill="#D8DEE8"/>
<path d="M127.958 131.994C127.958 139.725 132.786 145.866 138.699 145.716C138.75 145.716 138.8 145.708 138.859 145.708C140.466 141.664 141.358 137.262 141.358 132.677C141.358 127.393 140.18 122.4 138.077 117.948C132.45 118.414 127.958 124.538 127.958 131.994Z" fill="url(#paint12_linear_34_296)"/>
<path opacity="0.3" d="M91.4767 109.036C101.108 105.483 116.863 110.442 122.011 121.726C126.099 130.68 124.063 144.793 114.92 149.37C106.189 153.739 92.831 148.504 91.9225 141.847C91.0057 135.124 102.832 127.368 104.489 128.674C106.197 130.022 97.0536 141.09 99.4425 143.437C102.21 146.158 121.271 137.969 120.732 127.801C120.329 120.112 108.906 113.687 99.8883 115.377C87.8008 117.64 79.8434 134.474 84.7895 145.767C90.3664 158.523 110.899 160.853 121.17 152.657C134.511 141.997 125.048 117.648 124.164 115.443C121.834 109.652 118.512 105.108 115.231 101.638C112.682 100.981 109.999 100.623 107.232 100.615C89.0037 100.556 73.9216 115.427 73.9216 133.834C73.9216 135.823 74.0983 137.77 74.4432 139.659C76.6638 123.382 82.737 112.256 91.4767 109.036Z" fill="white"/>
<path opacity="0.3" d="M97.8358 136.446C89.5083 119.146 95.7918 108.295 93.6468 91.8601C75.7721 97.4854 62.6079 114.211 62.6079 134.033C62.6079 158.681 82.8799 177.762 107.206 176.68C115.248 176.323 122.701 173.801 129.026 169.732C119.891 155.378 106.634 154.737 97.8358 136.446Z" fill="white"/>
<path d="M66.0143 224.828C65.7704 224.828 65.5769 224.637 65.5769 224.396V154.704C65.5769 154.462 65.7704 154.271 66.0143 154.271C66.2582 154.271 66.4517 154.462 66.4517 154.704V224.396C66.4517 224.637 66.2582 224.828 66.0143 224.828Z" fill="#A2A7AE"/>
<path d="M35.2362 223.397C34.9923 223.397 34.7988 223.206 34.7988 222.964V154.704C34.7988 154.462 34.9923 154.271 35.2362 154.271C35.4802 154.271 35.6736 154.462 35.6736 154.704V222.964C35.6736 223.206 35.4802 223.397 35.2362 223.397Z" fill="#A2A7AE"/>
<path d="M38.3485 233C38.3149 233 38.2812 233 38.2476 232.992C38.0121 232.933 37.8691 232.7 37.9195 232.467L56.3999 155.236C56.4588 155.003 56.6943 154.862 56.9298 154.912C57.1653 154.97 57.3083 155.203 57.2579 155.436L38.7691 232.667C38.7271 232.867 38.542 233 38.3485 233Z" fill="#A2A7AE"/>
<path d="M9.75742 229.206C9.72377 229.206 9.68171 229.197 9.64807 229.189C9.41254 229.131 9.26955 228.89 9.32843 228.665L28.263 155.228C28.3219 154.995 28.5658 154.854 28.7929 154.912C29.0284 154.97 29.1714 155.212 29.1126 155.436L10.178 228.881C10.1275 229.073 9.95089 229.206 9.75742 229.206Z" fill="#A2A7AE"/>
<path d="M27.6069 155.394L57.0813 156.019L66.5275 155.394V154.021L44.5648 153.58L27.6069 154.021V155.394Z" fill="#D8DEE8"/>
<path d="M27.6069 155.394L57.0813 156.018V154.645L27.6069 154.021V155.394Z" fill="#A2A7AE"/>
<path d="M52.8334 172.445C52.825 172.445 52.8166 172.445 52.8082 172.445L25.0414 170.914C24.7975 170.897 24.6124 170.698 24.6292 170.456C24.6461 170.215 24.8479 170.032 25.0919 170.049L52.8587 171.58C53.1026 171.596 53.2877 171.796 53.2708 172.037C53.2624 172.262 53.0689 172.445 52.8334 172.445Z" fill="#A2A7AE"/>
<path d="M49.1573 187.798C49.1489 187.798 49.1405 187.798 49.1237 187.798L20.8858 185.934C20.6419 185.918 20.4653 185.71 20.4737 185.468C20.4905 185.227 20.7008 185.052 20.9363 185.061L49.1741 186.925C49.4181 186.941 49.5947 187.149 49.5863 187.391C49.5863 187.624 49.3928 187.798 49.1573 187.798Z" fill="#A2A7AE"/>
<path d="M45.5067 203.06C45.4983 203.06 45.4815 203.06 45.4731 203.06L17.025 200.913C16.781 200.896 16.6044 200.688 16.6212 200.447C16.638 200.205 16.8483 200.031 17.0923 200.047L45.5404 202.194C45.7843 202.211 45.961 202.419 45.9441 202.66C45.9273 202.893 45.7338 203.06 45.5067 203.06Z" fill="#A2A7AE"/>
<path d="M41.873 218.238C41.8562 218.238 41.8478 218.238 41.831 218.238L13.2146 215.717C12.9707 215.692 12.7941 215.484 12.8193 215.242C12.8445 215.001 13.0548 214.826 13.2988 214.851L41.9151 217.372C42.159 217.397 42.3357 217.605 42.3104 217.847C42.2936 218.071 42.1002 218.238 41.873 218.238Z" fill="#A2A7AE"/>
<path d="M78.5813 53.3985C78.5813 53.3985 78.1186 62.2359 76.2849 62.2275C74.4512 62.2275 69.1519 57.035 65.047 56.752C60.9505 56.4691 63.3394 70.6322 63.3394 70.6322C63.3394 70.6322 71.2548 76.7568 78.5729 75.0758C85.8994 73.3949 84.1245 58.0585 80.5496 53.8895L78.5813 53.3985Z" fill="white"/>
<path d="M58.8561 53.0575C59.1757 52.5166 60.0505 51.0354 59.6972 49.3046C59.3355 47.5321 57.771 45.9094 55.9036 45.5516C54.2802 45.2354 52.9595 45.9926 51.5464 46.7998C48.0555 48.797 47.5677 51.2684 46.491 51.1103C44.4217 50.8024 46.4573 41.8818 42.1338 38.6032C39.1476 36.3398 36.3045 39.1607 30.0547 38.3286C20.7262 37.0804 18.6148 29.6493 13.8959 30.8227C8.84053 32.0792 5.29082 42.0899 7.71337 50.0036C9.76581 56.7106 15.5446 60.0642 17.6896 61.121C21.9122 63.218 25.5208 63.1348 31.4594 62.9267C45.3638 62.4358 56.0718 57.7675 58.8561 53.0575Z" fill="url(#paint13_linear_34_296)"/>
<path d="M54.869 152.299C54.869 152.299 54.7008 153.638 54.8101 154.088C54.9279 154.537 58.8561 154.862 60.1936 154.704C61.531 154.545 59.3945 153.197 58.5449 152.948C57.7037 152.69 54.869 152.299 54.869 152.299Z" fill="url(#paint14_linear_34_296)"/>
<path d="M56.854 150.061L56.4418 152.748C56.4418 152.748 55.3819 153.223 54.8772 152.757L54.8184 149.944L56.854 150.061Z" fill="url(#paint15_linear_34_296)"/>
<path d="M34.6724 149.944C34.6724 149.944 35.5052 150.56 35.2865 151.292C35.0678 152.024 33.1163 154.97 31.7284 155.802C30.3404 156.634 30.7778 154.895 31.1816 153.813C31.5854 152.732 32.62 150.343 33.0238 149.944C33.4191 149.544 34.6724 149.944 34.6724 149.944Z" fill="url(#paint16_linear_34_296)"/>
<path d="M36.1784 146.99C35.7747 148.105 35.3877 149.02 35.0849 149.694C34.412 151.184 34.0503 151.75 33.6297 152.232C33.268 152.657 32.41 153.556 32.1745 153.406C31.939 153.256 32.5698 152.158 33.7811 148.945C33.9578 148.479 34.5129 146.99 34.5129 146.99H36.1784Z" fill="url(#paint17_linear_34_296)"/>
<path d="M65.089 100.498C65.375 103.294 65.6525 107.638 65.2404 112.905C64.702 119.77 63.3141 124.114 61.5729 131.437C60.513 135.914 59.0746 142.496 57.7793 150.726C57.4764 150.893 56.5932 151.342 55.4576 151.176C54.8184 151.084 54.3389 150.834 54.0613 150.651C50.663 140.366 51.664 133.992 53.3043 130.022C54.0024 128.333 54.852 126.993 55.3062 124.389C55.9035 120.944 55.1632 119.022 54.1034 111.05C53.3463 105.366 53.4809 104.484 53.9856 103.635C55.996 100.223 62.1281 100.29 65.089 100.498Z" fill="url(#paint18_linear_34_296)"/>
<path d="M53.3799 101.688C51.2939 112.339 49.2498 117.931 47.7021 121.093C47.3236 121.876 46.045 124.389 44.8421 128C43.7739 131.196 43.3281 133.542 43.1009 134.574C42.386 137.836 40.6027 142.604 35.8249 148.854C35.766 148.887 34.9501 149.345 34.1678 148.937C33.7725 148.729 33.579 148.404 33.4949 148.246C34.1173 142.271 34.8407 137.245 35.4632 133.376C35.5978 132.56 36.1698 129.007 37.0698 124.305C37.4231 122.466 37.9362 119.77 38.5587 117.008C39.3325 113.562 40.5102 108.869 42.3355 103.252C46.0282 102.736 49.7041 102.212 53.3799 101.688Z" fill="url(#paint19_linear_34_296)"/>
<path d="M71.0865 60.8797C70.6491 58.1336 66.2246 56.7189 63.9367 55.9783C59.0411 54.4056 54.7848 55.3043 52.909 55.6954C46.0199 57.1433 41.7216 61.2292 40.1066 62.9517C41.4272 63.8005 45.0778 66.4051 46.8863 71.3397C47.4499 72.8708 49.107 78.1217 46.7349 83.0396C45.3638 85.8689 42.9413 87.9992 41.0991 89.6135C38.3401 92.0351 36.9101 92.4095 35.9849 94.5814C34.9755 96.9447 35.9933 98.0931 34.7399 99.7157C33.3941 101.455 31.8211 100.648 29.5416 102.404C27.2115 104.201 28.0359 105.682 25.9162 107.671C22.8291 110.559 18.741 109.618 18.5476 110.925C18.3878 112.04 21.2898 113.563 23.7628 114.178C28.6499 115.393 32.923 113.355 34.1848 112.722C37.7008 110.975 37.0868 109.843 39.7701 108.52C44.2535 106.29 47.3153 108.769 57.5354 109.027C63.0703 109.169 65.8629 109.194 67.3938 107.346C68.7902 105.657 68.0584 103.802 67.2172 95.8047C66.8218 92.0018 66.6704 88.1739 66.376 84.3627C65.6779 75.2757 65.5433 73.1704 65.9639 71.839C66.0143 71.6892 66.0985 71.5061 66.2583 71.1317C69.3285 63.8837 71.3978 62.8851 71.0865 60.8797Z" fill="white"/>
<g opacity="0.3">
<path opacity="0.3" d="M25.9161 107.671C28.0359 105.682 27.2115 104.201 29.5415 102.404C31.8211 100.648 33.3941 101.455 34.7399 99.7158C35.9933 98.1014 34.9754 96.9447 35.9848 94.5814C36.9101 92.4095 38.3401 92.0351 41.0991 89.6136C42.9413 87.9992 45.3638 85.8689 46.7349 83.0396C49.1154 78.1217 47.4499 72.8791 46.8863 71.3397C45.0778 66.4051 41.4272 63.8088 40.1065 62.9517C40.2327 62.8185 40.3841 62.6604 40.5439 62.5023C49.2584 63.6923 54.339 68.6768 54.9699 70.1497C56.4251 73.5615 54.1203 74.8097 54.0614 84.654C54.0362 89.3556 54.5493 91.2113 53.0016 93.1751C51.2351 95.4219 49.2079 94.7229 46.6592 97.6604C44.6993 99.9155 45.0105 101.347 43.1852 102.295C41.2169 103.319 39.9635 102.129 37.7429 102.595C34.0333 103.377 33.2427 107.604 30.7949 109.918C28.9443 111.665 25.5124 112.889 18.7578 111.574C18.598 111.349 18.5223 111.133 18.556 110.925C18.741 109.618 22.8375 110.559 25.9161 107.671Z" fill="url(#paint20_linear_34_296)"/>
</g>
<path d="M55.7353 50.3699C55.7353 50.3699 55.2979 53.8482 54.0026 54.6471C52.7072 55.4459 50.6127 56.4861 50.3771 56.769C50.15 57.052 58.4102 57.934 62.5067 55.887C61.1608 55.6124 60.7907 55.5042 60.7907 55.5042C60.4206 55.4043 59.7393 55.2129 59.0579 54.8218C58.5953 54.5555 57.8383 54.0479 57.1485 53.0743L57.1653 51.1521L55.7353 50.3699Z" fill="url(#paint21_linear_34_296)"/>
<path d="M55.5337 51.6015C55.5337 51.6015 56.3832 52.7499 57.7039 52.2672C58.8899 51.8428 58.1833 48.8055 57.2412 48.456C56.93 48.3395 56.3496 48.3894 55.9626 48.6308C55.6935 48.7972 54.9701 49.6876 55.3822 50.6861C55.0794 50.6029 54.8187 50.6778 54.7514 50.8276C54.6673 51.0107 54.9196 51.2686 54.9785 51.3269C55.1804 51.5266 55.4243 51.5849 55.5337 51.6015Z" fill="url(#paint22_linear_34_296)"/>
<path d="M22.3244 65.7643C26.6312 69.7419 29.5248 70.2828 31.4426 69.8917C33.6549 69.4423 34.1932 67.8363 38.0626 64.3746C41.6375 61.1625 45.1956 57.9754 47.3322 58.691C49.7547 59.5065 50.4277 65.3066 48.5939 69.8001C46.2471 75.5502 38.5084 82.2407 30.3071 80.0105C24.8647 78.5293 20.8608 73.5781 20.2888 67.6782C20.9702 67.0374 21.6515 66.3967 22.3244 65.7643Z" fill="white"/>
<path d="M78.5814 53.3987C78.5814 53.3987 78.4384 52.3835 79.002 52.009C79.5655 51.6346 83.4349 51.9009 84.562 50.3697C85.6892 48.8386 85.4116 52.2421 84.562 52.3169C83.7125 52.3918 80.5581 53.8897 80.5581 53.8897L78.5814 53.3987Z" fill="url(#paint23_linear_34_296)"/>
<path d="M21.7608 66.2718C21.7608 66.2718 21.2729 65.4064 21.214 65.0652C21.1551 64.7157 21.5084 63.8586 21.3318 63.1929C21.1551 62.5272 20.9533 63.3094 20.9533 63.5091C20.9533 63.7088 20.6757 64.491 20.4654 64.4578C20.2551 64.4328 17.6896 63.6256 17.1933 63.2345C16.697 62.8434 17.1344 64.516 18.2447 64.8572C19.3551 65.2067 20.4654 66.2635 20.4654 66.2635L20.9196 67.0624L21.7608 66.2718Z" fill="url(#paint24_linear_34_296)"/>
<path d="M122.414 114.694C124.904 112.747 127.419 114.728 133.442 114.611C142.308 114.436 145.538 110.001 149.029 111.857C152.923 113.92 152.519 121.351 152.444 123.465C151.661 146.266 167.736 182.464 189.581 199.523C190.515 200.255 207.75 213.495 214.934 208.577C217.718 206.671 219.308 201.82 217.911 198.491C216.338 194.713 211.947 195.296 209.542 191.168C207.186 187.141 208.036 180.875 210.475 179.884C214.219 178.37 225.044 187.873 226.769 198.999C228.804 212.155 218.029 226.975 206.051 229.655C195.705 231.968 192.012 223.547 174.171 223.63C163.833 223.672 162.369 226.518 154.336 225.353C146.774 224.254 134.922 218.662 130.052 211.181C118.183 192.949 146.606 163.749 134.367 149.278C131.776 146.216 127.402 143.861 123.524 136.729C122.313 134.508 120.025 129.739 120.017 123.523C120.017 120.261 120.017 116.575 122.414 114.694Z" fill="url(#paint25_linear_34_296)"/>
<path opacity="0.3" d="M205.008 221.517C198.354 219.145 197.513 214.543 189.472 212.455C175.492 208.818 164.977 220.751 157.995 216.399C147.674 209.966 170.512 177.995 156.406 154.121C147.809 139.575 129.724 135.207 130.969 123.748C131.431 119.471 134.359 116.284 136.546 114.37C135.595 114.503 134.569 114.594 133.45 114.619C127.461 114.736 124.206 112.797 122.423 114.703C120.723 116.517 121.935 120.137 122.641 122.026C127.285 134.424 136.428 142.122 140.028 148.454C151.165 168.068 118.932 191.859 130.06 211.198C135.032 219.844 146.757 224.271 154.345 225.369C162.378 226.534 163.841 223.688 174.179 223.647C192.02 223.572 195.713 231.993 206.059 229.672C210.854 228.598 215.447 225.586 219.114 221.508C213.117 223.189 208.541 222.781 205.008 221.517Z" fill="url(#paint26_linear_34_296)"/>
<path d="M149.281 114.153C149.811 126.145 153.621 131.77 157.423 134.632C162.016 138.086 166.996 137.828 167.997 141.306C169.09 145.076 164.842 150.926 160.452 151.358C153.361 152.057 148.053 138.402 147.641 137.32C144.217 128.242 146.068 119.695 147.489 115.177C148.087 114.827 148.684 114.486 149.281 114.153Z" fill="#D8DEE8"/>
<path d="M169.46 225.028C170.016 225.91 169.931 226.318 169.831 226.501C169.553 227.05 168.695 226.651 166.617 227.109C166.373 227.167 165.911 227.275 165.305 227.2C164.792 227.134 164.17 226.934 164.178 226.792C164.178 226.742 164.271 226.717 164.304 226.701C164.876 226.518 168.417 225.028 168.417 225.028H169.46Z" fill="url(#paint27_linear_34_296)"/>
<path d="M169.519 222.956L169.41 225.061C169.41 225.061 168.577 225.785 168.257 225.045C168.03 224.512 167.879 223.031 167.879 223.031L169.519 222.956Z" fill="url(#paint28_linear_34_296)"/>
<path d="M145.958 222.057L146.656 224.512L147.96 224.404L147.834 222.174L145.958 222.057Z" fill="url(#paint29_linear_34_296)"/>
<path d="M146.951 225.86C147.632 225.178 148.179 225.286 148.33 224.795C148.448 224.404 148.246 223.905 147.893 223.697C147.397 223.397 146.741 223.755 146.589 223.838C145.58 224.387 145.765 225.369 144.823 225.719C144.638 225.785 144.335 225.86 144.007 226.118C143.864 226.226 143.527 226.501 143.586 226.709C143.653 226.95 144.225 226.992 144.772 227.025C145.428 227.067 145.756 227.083 146.084 226.917C146.539 226.667 146.429 226.384 146.951 225.86Z" fill="url(#paint30_linear_34_296)"/>
<path d="M171.151 172.736C171.42 177.579 171.16 181.757 170.722 185.194C170.251 188.888 169.847 189.554 169.822 192.084C169.755 197.584 171.597 198.225 172.438 204.366C173.372 211.148 171.992 216.715 171.446 218.845C170.966 220.701 170.428 222.216 170.016 223.273C169.427 223.872 168.443 223.739 167.408 223.614C166.516 217.464 165.557 211.681 164.666 205.531C162.681 196.328 160.687 187.132 158.702 177.929C162.857 176.198 167.004 174.467 171.151 172.736Z" fill="url(#paint31_linear_34_296)"/>
<path opacity="0.3" d="M167.416 223.614C166.525 217.464 165.566 211.681 164.674 205.531C162.689 196.328 160.695 187.132 158.71 177.929C162.857 176.198 167.004 174.467 171.159 172.736C171.176 173.061 171.185 173.369 171.201 173.685C165.65 179.319 164.817 183.479 165.111 186.259C165.465 189.621 167.467 191.135 167.509 196.053C167.542 199.565 166.533 200.272 166.794 203.417C167.139 207.478 169.082 209.609 170.142 211.889C171.159 214.086 171.723 217.273 170.503 221.966C170.335 222.457 170.167 222.89 170.024 223.272C169.435 223.863 168.451 223.73 167.416 223.614Z" fill="url(#paint32_linear_34_296)"/>
<path d="M159.425 176.639C155.775 181.565 153.621 185.51 152.427 187.956C151.695 189.454 151.014 191.018 150.677 193.124C150.265 195.703 150.576 197.884 150.896 199.298C151.384 201.112 151.771 203.209 151.914 205.548C152.376 213.137 149.988 219.22 148.238 222.681C147.456 222.881 146.665 223.089 145.883 223.289C144.646 218.379 143.216 211.439 142.535 203.001C142.165 198.391 141.887 194.771 142.333 190.253C142.804 185.493 144.242 178.02 149.079 169.408C152.528 171.821 155.977 174.226 159.425 176.639Z" fill="url(#paint33_linear_34_296)"/>
<path d="M153.318 136.03C148.566 137.245 144.974 138.394 143.544 141.032C142.038 143.811 144.949 145.567 146.185 151.3C148.07 160.063 143.199 163.799 145.428 172.595C146.177 175.557 147.405 177.796 148.238 179.119C149.903 180.251 152.519 181.757 155.976 182.647C161.007 183.937 163.337 182.755 169.94 182.589C180.749 182.314 182.616 185.268 187.31 182.972C192.062 180.65 195.183 175.174 193.955 173.052C193.223 171.779 191.322 172.77 188.361 171.372C184.551 169.574 184.921 166.662 181.767 164.44C177.233 161.261 173.456 165.155 169.57 162.384C165.641 159.58 164.573 152.066 165.751 147.447C166.525 144.427 166.272 141.24 166.777 138.161C166.819 137.903 166.836 137.503 166.642 137.062C165.894 135.381 162.664 135.315 160.224 135.281C156.506 135.24 153.705 135.931 153.318 136.03Z" fill="white"/>
<path opacity="0.3" d="M186.46 179.66C184.887 178.803 185.459 175.948 183.129 174.659C180.967 173.452 179.521 175.382 176.425 174.708C172.455 173.851 172.354 170.148 168.543 169.275C165.81 168.65 165.145 170.398 161.301 170.789C157.465 171.18 152.301 170.023 148.776 166.254C147.279 164.656 146.37 162.892 145.815 161.236C145.067 164.598 144.217 167.868 145.412 172.586C146.16 175.549 147.388 177.787 148.221 179.11C149.887 180.242 152.503 181.748 155.96 182.639C160.99 183.929 163.32 182.747 169.923 182.581C180.732 182.306 182.599 185.26 187.293 182.963C190.33 181.482 192.693 178.711 193.686 176.348C189.707 179.768 187.604 180.284 186.46 179.66Z" fill="url(#paint34_linear_34_296)"/>
<path d="M153.142 126.602C153.142 126.602 151.258 128.699 150.77 130.372C150.273 132.044 152.233 132.377 152.233 132.377L151.905 133.426C151.619 134.316 151.838 134.774 150.475 135.964L148.313 137.537C148.313 137.537 153.773 137.403 156.944 136.155L156.178 135.897C155.102 135.531 154.437 134.458 154.589 133.334L154.656 132.868C154.647 132.86 156.792 127.801 153.142 126.602Z" fill="url(#paint35_linear_34_296)"/>
<path d="M127.823 116.043C131.465 127.493 136.512 132.061 140.936 133.859C146.278 136.022 151.014 134.499 152.898 137.603C154.942 140.965 152.359 147.697 148.229 149.237C141.559 151.725 132.87 139.892 132.188 138.943C126.511 131.046 126.065 122.317 126.258 117.59C126.754 117.116 127.343 116.525 127.823 116.043Z" fill="white"/>
<path d="M153.335 129.182C153.596 129.223 153.891 128.949 154.042 129.09C154.202 129.232 154.067 129.698 153.823 129.989C153.63 130.23 153.377 130.33 153.234 130.372C153.369 130.688 153.512 131.171 153.487 131.745C153.419 133.018 152.528 133.842 152.116 134.358C150.257 136.654 151.174 141.198 152.772 143.761C154.067 145.85 155.026 145.359 155.716 146.973C157.045 150.11 153.596 152.399 153.748 156.235C153.975 162.068 162.302 165.771 162.647 165.921C162.782 165.979 162.874 166.021 163.017 166.079C166.777 167.627 172.48 169.965 177.435 167.785C181.136 166.154 183.575 162.359 184.223 158.656C184.391 157.683 184.988 153.971 182.709 150.293C182.347 149.711 180.211 146.257 176.408 145.317C174.398 144.818 173.818 145.425 172.388 144.626C170.419 143.528 169.587 141.323 169.065 139.95C168.106 137.428 168.821 137.112 168.014 135.789C166.432 133.201 163.581 134.258 161.789 131.886C160.031 129.548 161.957 127.401 160.216 125.321C158.416 123.182 154.084 122.749 152.721 124.464C151.561 125.936 152.536 129.057 153.335 129.182Z" fill="url(#paint36_linear_34_296)"/>
<path d="M149.281 114.153C149.281 114.153 150.24 111.574 149.281 110.817C148.322 110.059 145.353 111.724 145.353 111.724C145.353 111.724 147.767 114.27 147.498 115.177C147.498 115.169 149.029 114.977 149.281 114.153Z" fill="url(#paint37_linear_34_296)"/>
<path d="M127.57 116.3C127.57 116.3 127.705 114.403 127.823 113.554C127.949 112.697 123.651 112.755 123.676 113.188C123.701 113.621 126.267 117.598 126.267 117.598L127.57 116.3Z" fill="url(#paint38_linear_34_296)"/>
<path d="M79.4898 48.4059C84.1168 48.4059 87.8678 44.6952 87.8678 40.1178C87.8678 35.5404 84.1168 31.8297 79.4898 31.8297C74.8628 31.8297 71.1118 35.5404 71.1118 40.1178C71.1118 44.6952 74.8628 48.4059 79.4898 48.4059Z" fill="url(#paint39_linear_34_296)"/>
<path opacity="0.5" d="M79.4897 44.3282C82.6394 44.3282 85.1928 41.8022 85.1928 38.6863C85.1928 35.5703 82.6394 33.0444 79.4897 33.0444C76.34 33.0444 73.7866 35.5703 73.7866 38.6863C73.7866 41.8022 76.34 44.3282 79.4897 44.3282Z" fill="white"/>
<path d="M88.3892 33.7352C90.0895 33.7352 91.4678 32.3716 91.4678 30.6896C91.4678 29.0075 90.0895 27.6439 88.3892 27.6439C86.6889 27.6439 85.3105 29.0075 85.3105 30.6896C85.3105 32.3716 86.6889 33.7352 88.3892 33.7352Z" fill="url(#paint40_linear_34_296)"/>
<path opacity="0.5" d="M88.3892 32.2375C89.5459 32.2375 90.4837 31.3098 90.4837 30.1654C90.4837 29.0211 89.5459 28.0934 88.3892 28.0934C87.2324 28.0934 86.2947 29.0211 86.2947 30.1654C86.2947 31.3098 87.2324 32.2375 88.3892 32.2375Z" fill="white"/>
<path d="M78.5645 29.2417C81.7189 29.2417 84.276 26.712 84.276 23.5914C84.276 20.4709 81.7189 17.9412 78.5645 17.9412C75.4101 17.9412 72.853 20.4709 72.853 23.5914C72.853 26.712 75.4101 29.2417 78.5645 29.2417Z" fill="url(#paint41_linear_34_296)"/>
<path opacity="0.5" d="M78.5646 26.4622C80.7109 26.4622 82.4508 24.741 82.4508 22.6177C82.4508 20.4945 80.7109 18.7733 78.5646 18.7733C76.4184 18.7733 74.6785 20.4945 74.6785 22.6177C74.6785 24.741 76.4184 26.4622 78.5646 26.4622Z" fill="white"/>
<path d="M62.6497 36.3314C66.538 36.3314 69.6902 33.213 69.6902 29.3663C69.6902 25.5197 66.538 22.4013 62.6497 22.4013C58.7613 22.4013 55.6091 25.5197 55.6091 29.3663C55.6091 33.213 58.7613 36.3314 62.6497 36.3314Z" fill="url(#paint42_linear_34_296)"/>
<path opacity="0.5" d="M62.6496 32.9029C65.2976 32.9029 67.4443 30.7793 67.4443 28.1597C67.4443 25.5401 65.2976 23.4165 62.6496 23.4165C60.0016 23.4165 57.855 25.5401 57.855 28.1597C57.855 30.7793 60.0016 32.9029 62.6496 32.9029Z" fill="white"/>
<path d="M46.4322 27.5608C48.7457 27.5608 50.6211 25.7054 50.6211 23.4167C50.6211 21.128 48.7457 19.2726 46.4322 19.2726C44.1186 19.2726 42.2432 21.128 42.2432 23.4167C42.2432 25.7054 44.1186 27.5608 46.4322 27.5608Z" fill="url(#paint43_linear_34_296)"/>
<path opacity="0.5" d="M46.4321 25.5222C48.007 25.5222 49.2836 24.2592 49.2836 22.7012C49.2836 21.1432 48.007 19.8802 46.4321 19.8802C44.8572 19.8802 43.5806 21.1432 43.5806 22.7012C43.5806 24.2592 44.8572 25.5222 46.4321 25.5222Z" fill="white"/>
<defs>
<linearGradient id="paint0_linear_34_296" x1="158.494" y1="34.7587" x2="159.324" y2="8.74624" gradientUnits="userSpaceOnUse">
<stop stop-color="#311944"/>
<stop offset="1" stop-color="#A03976"/>
</linearGradient>
<linearGradient id="paint1_linear_34_296" x1="159.794" y1="27.9902" x2="159.694" y2="44.1059" gradientUnits="userSpaceOnUse">
<stop stop-color="#311944"/>
<stop offset="1" stop-color="#A03976"/>
</linearGradient>
<linearGradient id="paint2_linear_34_296" x1="200.009" y1="44.101" x2="111.588" y2="201.263" gradientUnits="userSpaceOnUse">
<stop stop-color="#FFC444"/>
<stop offset="0.9964" stop-color="#F36F56"/>
</linearGradient>
<linearGradient id="paint3_linear_34_296" x1="202.24" y1="45.3559" x2="113.819" y2="202.518" gradientUnits="userSpaceOnUse">
<stop stop-color="#FFC444"/>
<stop offset="0.9964" stop-color="#F36F56"/>
</linearGradient>
<linearGradient id="paint4_linear_34_296" x1="164.583" y1="51.5962" x2="160.944" y2="88.0096" gradientUnits="userSpaceOnUse">
<stop stop-color="#FFC444"/>
<stop offset="0.9964" stop-color="#F36F56"/>
</linearGradient>
<linearGradient id="paint5_linear_34_296" x1="9.09142" y1="130.47" x2="46.4337" y2="130.47" gradientUnits="userSpaceOnUse">
<stop stop-color="#AA80F9"/>
<stop offset="0.9964" stop-color="#6165D7"/>
</linearGradient>
<linearGradient id="paint6_linear_34_296" x1="122.512" y1="78.8608" x2="43.1423" y2="275.998" gradientUnits="userSpaceOnUse">
<stop stop-color="#AA80F9"/>
<stop offset="0.9964" stop-color="#6165D7"/>
</linearGradient>
<linearGradient id="paint7_linear_34_296" x1="55.26" y1="104.543" x2="126.673" y2="147.109" gradientUnits="userSpaceOnUse">
<stop stop-color="#AA80F9"/>
<stop offset="0.9964" stop-color="#6165D7"/>
</linearGradient>
<linearGradient id="paint8_linear_34_296" x1="109.563" y1="50.44" x2="85.5308" y2="110.13" gradientUnits="userSpaceOnUse">
<stop stop-color="#AA80F9"/>
<stop offset="0.9964" stop-color="#6165D7"/>
</linearGradient>
<linearGradient id="paint9_linear_34_296" x1="113.043" y1="64.8318" x2="102.103" y2="82.4818" gradientUnits="userSpaceOnUse">
<stop stop-color="#40447E"/>
<stop offset="0.9964" stop-color="#3C3B6B"/>
</linearGradient>
<linearGradient id="paint10_linear_34_296" x1="46.4337" y1="191.649" x2="159.945" y2="191.649" gradientUnits="userSpaceOnUse">
<stop stop-color="#40447E"/>
<stop offset="0.9964" stop-color="#3C3B6B"/>
</linearGradient>
<linearGradient id="paint11_linear_34_296" x1="73.9043" y1="133.277" x2="139.191" y2="133.277" gradientUnits="userSpaceOnUse">
<stop stop-color="#40447E"/>
<stop offset="0.9964" stop-color="#3C3B6B"/>
</linearGradient>
<linearGradient id="paint12_linear_34_296" x1="127.954" y1="131.834" x2="141.352" y2="131.834" gradientUnits="userSpaceOnUse">
<stop stop-color="#BFC8D6"/>
<stop offset="1" stop-color="#D8DEE8"/>
</linearGradient>
<linearGradient id="paint13_linear_34_296" x1="6.93312" y1="46.8561" x2="59.78" y2="46.8561" gradientUnits="userSpaceOnUse">
<stop stop-color="#444B8C"/>
<stop offset="0.9964" stop-color="#26264F"/>
</linearGradient>
<linearGradient id="paint14_linear_34_296" x1="58.2791" y1="143.685" x2="56.9481" y2="167.904" gradientUnits="userSpaceOnUse">
<stop stop-color="#444B8C"/>
<stop offset="0.9964" stop-color="#26264F"/>
</linearGradient>
<linearGradient id="paint15_linear_34_296" x1="56.8528" y1="151.452" x2="54.8164" y2="151.452" gradientUnits="userSpaceOnUse">
<stop stop-color="#311944"/>
<stop offset="1" stop-color="#A03976"/>
</linearGradient>
<linearGradient id="paint16_linear_34_296" x1="33.6643" y1="142.333" x2="32.3332" y2="166.551" gradientUnits="userSpaceOnUse">
<stop stop-color="#444B8C"/>
<stop offset="0.9964" stop-color="#26264F"/>
</linearGradient>
<linearGradient id="paint17_linear_34_296" x1="36.1753" y1="150.21" x2="32.1252" y2="150.21" gradientUnits="userSpaceOnUse">
<stop stop-color="#311944"/>
<stop offset="1" stop-color="#A03976"/>
</linearGradient>
<linearGradient id="paint18_linear_34_296" x1="57.9457" y1="149.025" x2="58.6112" y2="123.015" gradientUnits="userSpaceOnUse">
<stop stop-color="#444B8C"/>
<stop offset="0.9964" stop-color="#26264F"/>
</linearGradient>
<linearGradient id="paint19_linear_34_296" x1="42.8281" y1="148.638" x2="43.4936" y2="122.628" gradientUnits="userSpaceOnUse">
<stop stop-color="#444B8C"/>
<stop offset="0.9964" stop-color="#26264F"/>
</linearGradient>
<linearGradient id="paint20_linear_34_296" x1="43.8209" y1="55.2708" x2="36.1269" y2="102.833" gradientUnits="userSpaceOnUse">
<stop offset="0.00359712" stop-color="#E38DDD"/>
<stop offset="1" stop-color="#9571F6"/>
</linearGradient>
<linearGradient id="paint21_linear_34_296" x1="52.0056" y1="52.5557" x2="55.4802" y2="55.4134" gradientUnits="userSpaceOnUse">
<stop stop-color="#311944"/>
<stop offset="1" stop-color="#A03976"/>
</linearGradient>
<linearGradient id="paint22_linear_34_296" x1="49.7693" y1="47.7125" x2="57.7335" y2="50.7693" gradientUnits="userSpaceOnUse">
<stop stop-color="#311944"/>
<stop offset="1" stop-color="#A03976"/>
</linearGradient>
<linearGradient id="paint23_linear_34_296" x1="67.492" y1="51.6311" x2="81.5582" y2="51.9155" gradientUnits="userSpaceOnUse">
<stop stop-color="#311944"/>
<stop offset="1" stop-color="#A03976"/>
</linearGradient>
<linearGradient id="paint24_linear_34_296" x1="20.7811" y1="70.1444" x2="19.6783" y2="65.3779" gradientUnits="userSpaceOnUse">
<stop stop-color="#311944"/>
<stop offset="1" stop-color="#A03976"/>
</linearGradient>
<linearGradient id="paint25_linear_34_296" x1="197.096" y1="212.241" x2="153.265" y2="173.124" gradientUnits="userSpaceOnUse">
<stop stop-color="#FF9085"/>
<stop offset="1" stop-color="#FB6FBB"/>
</linearGradient>
<linearGradient id="paint26_linear_34_296" x1="193.592" y1="216.185" x2="149.783" y2="177.088" gradientUnits="userSpaceOnUse">
<stop stop-color="#FF9085"/>
<stop offset="1" stop-color="#FB6FBB"/>
</linearGradient>
<linearGradient id="paint27_linear_34_296" x1="165.943" y1="232.614" x2="168.614" y2="217.476" gradientUnits="userSpaceOnUse">
<stop stop-color="#444B8C"/>
<stop offset="0.9964" stop-color="#26264F"/>
</linearGradient>
<linearGradient id="paint28_linear_34_296" x1="169.461" y1="229.318" x2="166.71" y2="205.849" gradientUnits="userSpaceOnUse">
<stop stop-color="#FFC444"/>
<stop offset="0.9964" stop-color="#F36F56"/>
</linearGradient>
<linearGradient id="paint29_linear_34_296" x1="146.682" y1="227.534" x2="148.157" y2="203.952" gradientUnits="userSpaceOnUse">
<stop stop-color="#FFC444"/>
<stop offset="0.9964" stop-color="#F36F56"/>
</linearGradient>
<linearGradient id="paint30_linear_34_296" x1="144.968" y1="228.321" x2="150.303" y2="213.889" gradientUnits="userSpaceOnUse">
<stop stop-color="#444B8C"/>
<stop offset="0.9964" stop-color="#26264F"/>
</linearGradient>
<linearGradient id="paint31_linear_34_296" x1="165.447" y1="178.452" x2="173.267" y2="226.703" gradientUnits="userSpaceOnUse">
<stop stop-color="#311944"/>
<stop offset="1" stop-color="#893976"/>
</linearGradient>
<linearGradient id="paint32_linear_34_296" x1="165.446" y1="178.452" x2="173.267" y2="226.703" gradientUnits="userSpaceOnUse">
<stop stop-color="#311944"/>
<stop offset="1" stop-color="#893976"/>
</linearGradient>
<linearGradient id="paint33_linear_34_296" x1="126.079" y1="195.973" x2="166.325" y2="196.694" gradientUnits="userSpaceOnUse">
<stop stop-color="#311944"/>
<stop offset="1" stop-color="#893976"/>
</linearGradient>
<linearGradient id="paint34_linear_34_296" x1="139.019" y1="143.499" x2="173.159" y2="180.888" gradientUnits="userSpaceOnUse">
<stop stop-color="#FF9085"/>
<stop offset="1" stop-color="#FB6FBB"/>
</linearGradient>
<linearGradient id="paint35_linear_34_296" x1="150.578" y1="130.012" x2="153.895" y2="139.117" gradientUnits="userSpaceOnUse">
<stop stop-color="#FFC444"/>
<stop offset="0.9964" stop-color="#F36F56"/>
</linearGradient>
<linearGradient id="paint36_linear_34_296" x1="172.335" y1="169.171" x2="161.057" y2="121.94" gradientUnits="userSpaceOnUse">
<stop stop-color="#444B8C"/>
<stop offset="0.9964" stop-color="#26264F"/>
</linearGradient>
<linearGradient id="paint37_linear_34_296" x1="147.539" y1="112.585" x2="147.669" y2="121.388" gradientUnits="userSpaceOnUse">
<stop stop-color="#FFC444"/>
<stop offset="0.9964" stop-color="#F36F56"/>
</linearGradient>
<linearGradient id="paint38_linear_34_296" x1="125.745" y1="112.906" x2="125.875" y2="121.71" gradientUnits="userSpaceOnUse">
<stop stop-color="#FFC444"/>
<stop offset="0.9964" stop-color="#F36F56"/>
</linearGradient>
<linearGradient id="paint39_linear_34_296" x1="80.5164" y1="26.173" x2="77.3816" y2="69.8035" gradientUnits="userSpaceOnUse">
<stop offset="0.00359712" stop-color="#E38DDD"/>
<stop offset="1" stop-color="#9571F6"/>
</linearGradient>
<linearGradient id="paint40_linear_34_296" x1="88.7663" y1="25.5589" x2="87.6128" y2="41.613" gradientUnits="userSpaceOnUse">
<stop offset="0.00359712" stop-color="#E38DDD"/>
<stop offset="1" stop-color="#9571F6"/>
</linearGradient>
<linearGradient id="paint41_linear_34_296" x1="79.2619" y1="14.0841" x2="77.124" y2="43.8402" gradientUnits="userSpaceOnUse">
<stop offset="0.00359712" stop-color="#E38DDD"/>
<stop offset="1" stop-color="#9571F6"/>
</linearGradient>
<linearGradient id="paint42_linear_34_296" x1="63.5105" y1="17.6336" x2="60.8742" y2="54.3269" gradientUnits="userSpaceOnUse">
<stop offset="0.00359712" stop-color="#E38DDD"/>
<stop offset="1" stop-color="#9571F6"/>
</linearGradient>
<linearGradient id="paint43_linear_34_296" x1="46.9456" y1="16.4455" x2="45.3783" y2="38.2607" gradientUnits="userSpaceOnUse">
<stop offset="0.00359712" stop-color="#E38DDD"/>
<stop offset="1" stop-color="#9571F6"/>
</linearGradient>
</defs>
</svg>
